<svg width="740" height="424" viewBox="0 0 740 424" fill="none" xmlns="http://www.w3.org/2000/svg">
<path d="M732.551 373.065C724.496 391.228 706.92 404.402 681.542 412.48C656.167 420.557 623.222 423.455 584.907 421.211C508.293 416.723 410.65 391.706 310.19 347.156C209.731 302.606 125.639 247.031 70.8809 193.259C43.4961 166.368 23.5271 140.005 12.4787 115.775C1.429 91.5434 -0.606249 69.6723 7.44868 51.5086C15.5036 33.3449 33.0801 20.1708 58.4579 12.0931C83.8329 4.01626 116.778 1.1187 155.093 3.3627C231.707 7.84977 329.35 32.8671 429.81 77.4171C530.269 121.967 614.361 177.542 669.119 231.314C696.504 258.206 716.473 284.569 727.521 308.798C738.571 333.03 740.606 354.901 732.551 373.065Z" stroke="#FCEFBB" stroke-width="4"/>
</svg>
