<svg width="850" height="597" viewBox="0 0 850 597" fill="none" xmlns="http://www.w3.org/2000/svg">
<path d="M106.68 206.92H103.08C103.08 209.864 103.08 212.504 103.08 214.84C103.112 217.144 103.144 219.352 103.176 221.464H107.688C110.728 221.464 113.064 220.84 114.696 219.592C116.328 218.344 117.144 216.568 117.144 214.264C117.144 211.896 116.312 210.088 114.648 208.84C113.016 207.56 110.36 206.92 106.68 206.92ZM107.064 192.184H103.176C103.144 194.36 103.112 196.568 103.08 198.808C103.08 201.048 103.08 203.272 103.08 205.48H106.248C109.384 205.48 111.736 204.856 113.304 203.608C114.872 202.36 115.656 200.616 115.656 198.376C115.656 196.392 114.984 194.872 113.64 193.816C112.328 192.728 110.136 192.184 107.064 192.184ZM95.544 191.992V190.648H107.976C111.4 190.648 113.96 191.368 115.656 192.808C117.384 194.216 118.248 196.056 118.248 198.328C118.248 200.088 117.64 201.688 116.424 203.128C115.208 204.568 113.272 205.544 110.616 206.056C113.88 206.408 116.232 207.352 117.672 208.888C119.144 210.424 119.88 212.232 119.88 214.312C119.88 215.88 119.464 217.32 118.632 218.632C117.8 219.944 116.52 221 114.792 221.8C113.064 222.6 110.84 223 108.12 223H95.544V221.656L100.44 221.272C100.472 219.096 100.488 216.92 100.488 214.744C100.488 212.536 100.488 210.328 100.488 208.12V205.528C100.488 203.32 100.488 201.128 100.488 198.952C100.488 196.744 100.472 194.552 100.44 192.376L95.544 191.992ZM135.211 223.624C133.451 223.624 131.755 223.208 130.123 222.376C128.523 221.512 127.195 220.2 126.139 218.44C125.115 216.68 124.603 214.456 124.603 211.768C124.603 209.048 125.115 206.808 126.139 205.048C127.195 203.256 128.523 201.928 130.123 201.064C131.755 200.168 133.451 199.72 135.211 199.72C136.971 199.72 138.651 200.168 140.251 201.064C141.883 201.928 143.227 203.256 144.283 205.048C145.339 206.808 145.867 209.048 145.867 211.768C145.867 214.456 145.339 216.68 144.283 218.44C143.227 220.2 141.883 221.512 140.251 222.376C138.651 223.208 136.971 223.624 135.211 223.624ZM135.211 222.184C137.643 222.184 139.579 221.272 141.019 219.448C142.459 217.624 143.179 215.064 143.179 211.768C143.179 208.44 142.459 205.848 141.019 203.992C139.579 202.136 137.643 201.208 135.211 201.208C132.779 201.208 130.843 202.136 129.403 203.992C127.963 205.848 127.243 208.44 127.243 211.768C127.243 215.064 127.963 217.624 129.403 219.448C130.843 221.272 132.779 222.184 135.211 222.184ZM150.235 223V221.752L154.267 221.272C154.299 220.056 154.315 218.664 154.315 217.096C154.347 215.496 154.363 214.104 154.363 212.92V210.616C154.363 207.64 154.315 205.048 154.219 202.84L149.995 202.648V201.4L155.851 199.864L156.427 200.248L156.667 204.664C158.171 202.968 159.707 201.72 161.275 200.92C162.875 200.12 164.411 199.72 165.883 199.72C167.771 199.72 169.227 200.36 170.251 201.64C171.275 202.92 171.787 205.096 171.787 208.168V212.92C171.787 214.104 171.787 215.496 171.787 217.096C171.819 218.664 171.851 220.056 171.883 221.272L175.579 221.752V223H165.307V221.752L169.339 221.272C169.371 220.056 169.387 218.664 169.387 217.096C169.419 215.496 169.435 214.104 169.435 212.92V208.312C169.435 205.944 169.035 204.28 168.235 203.32C167.467 202.36 166.379 201.88 164.971 201.88C163.883 201.88 162.651 202.184 161.275 202.792C159.931 203.368 158.411 204.536 156.715 206.296V212.92C156.715 214.104 156.715 215.496 156.715 217.096C156.747 218.664 156.779 220.056 156.811 221.272L160.507 221.752V223H150.235ZM177.428 235.144C176.307 235.144 175.475 234.952 174.931 234.568C174.387 234.216 174.083 233.848 174.02 233.464C174.307 232.568 175.011 232.12 176.131 232.12C176.579 232.12 177.027 232.184 177.476 232.312C177.924 232.44 178.436 232.68 179.012 233.032L179.828 233.512C180.596 233.096 181.22 232.488 181.7 231.688C182.34 230.632 182.756 229.032 182.948 226.888C183.14 224.744 183.236 222.072 183.236 218.872V210.616C183.236 207.64 183.188 205.048 183.092 202.84L178.868 202.648V201.4L185.06 199.864L185.636 200.248L185.54 206.2V217.672C185.54 220.584 185.476 223 185.348 224.92C185.22 226.872 184.948 228.472 184.532 229.72C184.116 230.968 183.444 232.056 182.516 232.984C181.812 233.688 181.06 234.216 180.26 234.568C179.492 234.952 178.548 235.144 177.428 235.144ZM184.196 192.904C183.588 192.904 183.06 192.712 182.612 192.328C182.196 191.944 181.988 191.432 181.988 190.792C181.988 190.12 182.196 189.592 182.612 189.208C183.06 188.824 183.588 188.632 184.196 188.632C184.804 188.632 185.316 188.824 185.732 189.208C186.18 189.592 186.404 190.12 186.404 190.792C186.404 191.432 186.18 191.944 185.732 192.328C185.316 192.712 184.804 192.904 184.196 192.904ZM203.508 223.624C201.748 223.624 200.052 223.208 198.42 222.376C196.82 221.512 195.492 220.2 194.436 218.44C193.412 216.68 192.9 214.456 192.9 211.768C192.9 209.048 193.412 206.808 194.436 205.048C195.492 203.256 196.82 201.928 198.42 201.064C200.052 200.168 201.748 199.72 203.508 199.72C205.268 199.72 206.948 200.168 208.548 201.064C210.18 201.928 211.524 203.256 212.58 205.048C213.636 206.808 214.164 209.048 214.164 211.768C214.164 214.456 213.636 216.68 212.58 218.44C211.524 220.2 210.18 221.512 208.548 222.376C206.948 223.208 205.268 223.624 203.508 223.624ZM203.508 222.184C205.94 222.184 207.876 221.272 209.316 219.448C210.756 217.624 211.476 215.064 211.476 211.768C211.476 208.44 210.756 205.848 209.316 203.992C207.876 202.136 205.94 201.208 203.508 201.208C201.076 201.208 199.14 202.136 197.7 203.992C196.26 205.848 195.54 208.44 195.54 211.768C195.54 215.064 196.26 217.624 197.7 219.448C199.14 221.272 201.076 222.184 203.508 222.184ZM228.136 223.624C226.024 223.624 224.408 222.968 223.288 221.656C222.2 220.344 221.672 218.04 221.704 214.744L221.848 202.312L217.912 201.832V200.536L223.864 200.152L224.296 200.68L224.104 207.352V214.456C224.104 217.048 224.504 218.872 225.304 219.928C226.136 220.952 227.336 221.464 228.904 221.464C230.312 221.464 231.672 221.112 232.984 220.408C234.328 219.672 235.592 218.616 236.776 217.24L236.872 202.264L232.984 201.832V200.536L238.888 200.152L239.32 200.68L239.176 207.352V221.32L242.776 221.752V223L236.968 223.336L236.824 218.776C235.64 220.248 234.312 221.432 232.84 222.328C231.4 223.192 229.832 223.624 228.136 223.624ZM246.939 223V221.752L250.923 221.272C250.955 220.056 250.971 218.664 250.971 217.096C251.003 215.496 251.019 214.104 251.019 212.92V210.616C251.019 207.64 250.971 205.048 250.875 202.84L246.651 202.648V201.4L252.507 199.864L253.083 200.248L253.371 206.248C254.107 204.328 255.163 202.76 256.539 201.544C257.947 200.328 259.419 199.72 260.955 199.72C261.723 199.72 262.411 199.864 263.019 200.152C263.627 200.44 264.043 200.776 264.267 201.16C264.267 202.664 263.595 203.416 262.251 203.416C261.771 203.416 261.323 203.304 260.907 203.08C260.523 202.856 260.107 202.552 259.659 202.168L259.131 201.688C257.883 202.2 256.779 203.048 255.819 204.232C254.891 205.384 254.075 206.856 253.371 208.648V212.92C253.371 214.104 253.371 215.496 253.371 217.096C253.403 218.664 253.435 220.056 253.467 221.272L257.787 221.752V223H246.939ZM270.219 222.664C270.219 224.136 269.899 225.56 269.259 226.936C268.651 228.312 267.819 229.528 266.763 230.584C265.739 231.672 264.603 232.552 263.355 233.224L262.827 232.264C264.363 231.272 265.611 230.136 266.571 228.856C267.531 227.576 268.171 226.088 268.491 224.392L267.147 223.336C266.251 222.6 265.803 221.816 265.803 220.984C265.803 220.44 265.963 219.976 266.283 219.592C266.635 219.176 267.131 218.968 267.771 218.968C268.507 218.968 269.195 219.272 269.835 219.88C270.091 220.68 270.219 221.608 270.219 222.664ZM287.115 235.144C285.995 235.144 285.163 234.952 284.619 234.568C284.075 234.216 283.771 233.848 283.707 233.464C283.995 232.568 284.699 232.12 285.819 232.12C286.267 232.12 286.715 232.184 287.163 232.312C287.611 232.44 288.123 232.68 288.699 233.032L289.515 233.512C290.283 233.096 290.907 232.488 291.387 231.688C292.027 230.632 292.443 229.032 292.635 226.888C292.827 224.744 292.923 222.072 292.923 218.872V210.616C292.923 207.64 292.875 205.048 292.779 202.84L288.555 202.648V201.4L294.747 199.864L295.323 200.248L295.227 206.2V217.672C295.227 220.584 295.163 223 295.035 224.92C294.907 226.872 294.635 228.472 294.219 229.72C293.803 230.968 293.131 232.056 292.203 232.984C291.499 233.688 290.747 234.216 289.947 234.568C289.179 234.952 288.235 235.144 287.115 235.144ZM293.883 192.904C293.275 192.904 292.747 192.712 292.299 192.328C291.883 191.944 291.675 191.432 291.675 190.792C291.675 190.12 291.883 189.592 292.299 189.208C292.747 188.824 293.275 188.632 293.883 188.632C294.491 188.632 295.003 188.824 295.419 189.208C295.867 189.592 296.091 190.12 296.091 190.792C296.091 191.432 295.867 191.944 295.419 192.328C295.003 192.712 294.491 192.904 293.883 192.904ZM313.004 201.208C311.66 201.208 310.412 201.576 309.26 202.312C308.14 203.016 307.212 204.024 306.476 205.336C305.772 206.648 305.34 208.2 305.18 209.992H317.708C318.38 209.992 318.828 209.816 319.052 209.464C319.308 209.112 319.436 208.584 319.436 207.88C319.436 206.728 319.18 205.64 318.668 204.616C318.156 203.592 317.42 202.776 316.46 202.168C315.5 201.528 314.348 201.208 313.004 201.208ZM313.196 223.624C311.276 223.624 309.516 223.192 307.916 222.328C306.316 221.432 305.02 220.104 304.028 218.344C303.068 216.584 302.588 214.376 302.588 211.72C302.588 209.288 303.068 207.176 304.028 205.384C305.02 203.592 306.316 202.2 307.916 201.208C309.516 200.216 311.244 199.72 313.1 199.72C314.86 199.72 316.396 200.12 317.708 200.92C319.02 201.688 320.028 202.744 320.732 204.088C321.468 205.432 321.836 206.968 321.836 208.696C321.836 209.272 321.804 209.784 321.74 210.232C321.676 210.68 321.596 211.08 321.5 211.432L305.132 211.384C305.164 213.752 305.564 215.704 306.332 217.24C307.132 218.744 308.172 219.864 309.452 220.6C310.764 221.304 312.188 221.656 313.724 221.656C315.26 221.656 316.62 221.368 317.804 220.792C318.988 220.216 320.028 219.432 320.924 218.44L321.692 219.112C320.796 220.488 319.596 221.592 318.092 222.424C316.62 223.224 314.988 223.624 313.196 223.624ZM345.367 223.624C344.023 223.624 342.807 223.48 341.719 223.192C340.663 222.904 339.559 222.504 338.407 221.992L338.215 217H339.895L340.663 221.224C341.303 221.544 342.007 221.784 342.775 221.944C343.543 222.104 344.439 222.184 345.463 222.184C347.543 222.184 349.095 221.768 350.119 220.936C351.143 220.072 351.655 219 351.655 217.72C351.655 216.6 351.287 215.688 350.551 214.984C349.815 214.28 348.551 213.608 346.759 212.968L344.503 212.152C342.775 211.512 341.383 210.712 340.327 209.752C339.303 208.792 338.791 207.512 338.791 205.912C338.791 204.184 339.447 202.728 340.759 201.544C342.103 200.328 344.023 199.72 346.519 199.72C347.831 199.72 348.967 199.896 349.927 200.248C350.887 200.568 351.911 201.048 352.999 201.688L352.855 206.2H351.271L350.743 202.36C350.007 201.912 349.271 201.608 348.535 201.448C347.831 201.288 347.111 201.208 346.375 201.208C344.615 201.208 343.287 201.608 342.391 202.408C341.527 203.176 341.095 204.152 341.095 205.336C341.095 206.52 341.463 207.432 342.199 208.072C342.967 208.712 344.167 209.336 345.799 209.944L347.815 210.712C350.087 211.544 351.671 212.472 352.567 213.496C353.495 214.488 353.959 215.72 353.959 217.192C353.959 218.312 353.639 219.368 352.999 220.36C352.391 221.352 351.447 222.152 350.167 222.76C348.919 223.336 347.319 223.624 345.367 223.624ZM368.105 223.624C365.993 223.624 364.377 222.968 363.257 221.656C362.169 220.344 361.641 218.04 361.673 214.744L361.817 202.312L357.881 201.832V200.536L363.833 200.152L364.265 200.68L364.073 207.352V214.456C364.073 217.048 364.473 218.872 365.273 219.928C366.105 220.952 367.305 221.464 368.873 221.464C370.281 221.464 371.641 221.112 372.953 220.408C374.297 219.672 375.561 218.616 376.745 217.24L376.841 202.264L372.953 201.832V200.536L378.857 200.152L379.289 200.68L379.145 207.352V221.32L382.745 221.752V223L376.937 223.336L376.793 218.776C375.609 220.248 374.281 221.432 372.809 222.328C371.369 223.192 369.801 223.624 368.105 223.624ZM386.908 223V221.752L390.94 221.272C390.972 220.056 390.988 218.664 390.988 217.096C391.02 215.496 391.036 214.104 391.036 212.92V210.616C391.036 209.208 391.036 207.88 391.036 206.632C391.036 205.384 391.004 204.12 390.94 202.84L386.668 202.648V201.4L392.908 199.864L393.484 200.248L393.388 206.2V212.92C393.388 214.104 393.388 215.496 393.388 217.096C393.42 218.664 393.452 220.056 393.484 221.272L397.18 221.752V223H386.908ZM391.996 192.904C391.388 192.904 390.86 192.712 390.412 192.328C389.996 191.944 389.788 191.432 389.788 190.792C389.788 190.12 389.996 189.592 390.412 189.208C390.86 188.824 391.388 188.632 391.996 188.632C392.604 188.632 393.116 188.824 393.532 189.208C393.98 189.592 394.204 190.12 394.204 190.792C394.204 191.432 393.98 191.944 393.532 192.328C393.116 192.712 392.604 192.904 391.996 192.904ZM408.929 223.624C407.585 223.624 406.369 223.48 405.281 223.192C404.225 222.904 403.121 222.504 401.969 221.992L401.777 217H403.457L404.225 221.224C404.865 221.544 405.569 221.784 406.337 221.944C407.105 222.104 408.001 222.184 409.025 222.184C411.105 222.184 412.657 221.768 413.681 220.936C414.705 220.072 415.217 219 415.217 217.72C415.217 216.6 414.849 215.688 414.113 214.984C413.377 214.28 412.113 213.608 410.321 212.968L408.065 212.152C406.337 211.512 404.945 210.712 403.889 209.752C402.865 208.792 402.353 207.512 402.353 205.912C402.353 204.184 403.009 202.728 404.321 201.544C405.665 200.328 407.585 199.72 410.081 199.72C411.393 199.72 412.529 199.896 413.489 200.248C414.449 200.568 415.473 201.048 416.561 201.688L416.417 206.2H414.833L414.305 202.36C413.569 201.912 412.833 201.608 412.097 201.448C411.393 201.288 410.673 201.208 409.937 201.208C408.177 201.208 406.849 201.608 405.953 202.408C405.089 203.176 404.657 204.152 404.657 205.336C404.657 206.52 405.025 207.432 405.761 208.072C406.529 208.712 407.729 209.336 409.361 209.944L411.377 210.712C413.649 211.544 415.233 212.472 416.129 213.496C417.057 214.488 417.521 215.72 417.521 217.192C417.521 218.312 417.201 219.368 416.561 220.36C415.953 221.352 415.009 222.152 413.729 222.76C412.481 223.336 410.881 223.624 408.929 223.624ZM430.14 223L430.428 221.656L434.364 221.224L450.684 190.648H452.364L456.636 221.272L461.292 221.656L461.004 223H448.764L449.052 221.656L453.948 221.272L452.604 211.192H441.372L436.188 221.224L440.412 221.656L440.172 223H430.14ZM442.14 209.752H452.46L450.348 193.864L442.14 209.752ZM469.306 223.624C468.41 223.624 467.674 223.368 467.098 222.856C466.522 222.312 466.234 221.448 466.234 220.264C466.234 219.336 466.346 218.312 466.57 217.192C466.794 216.072 467.018 215.032 467.242 214.072L469.834 202.264L464.698 202.12L464.89 201.112L471.85 199.72L472.474 200.2L469.498 213.352C469.274 214.344 469.05 215.448 468.826 216.664C468.634 217.848 468.538 218.76 468.538 219.4C468.538 220.808 469.21 221.512 470.554 221.512C471.578 221.512 472.794 221.176 474.202 220.504C475.642 219.8 477.434 218.536 479.578 216.712L481.018 209.8C481.37 208.264 481.69 206.728 481.978 205.192C482.298 203.624 482.602 202.072 482.89 200.536L484.714 199.72L485.194 200.104L481.498 217.528C481.402 218.04 481.29 218.568 481.162 219.112C481.066 219.624 481.018 220.056 481.018 220.408C481.018 221.176 481.45 221.56 482.314 221.56C483.05 221.56 483.866 221.224 484.762 220.552C485.658 219.848 486.602 218.888 487.594 217.672L488.362 218.248C487.306 219.688 486.186 220.952 485.002 222.04C483.818 223.096 482.522 223.624 481.114 223.624C480.474 223.624 479.914 223.416 479.434 223C478.986 222.616 478.762 222.056 478.762 221.32C478.762 220.872 478.794 220.424 478.858 219.976C478.954 219.528 479.098 218.904 479.29 218.104C477.338 219.96 475.562 221.352 473.962 222.28C472.362 223.176 470.81 223.624 469.306 223.624ZM493.099 216.808C493.099 218.472 493.387 219.688 493.963 220.456C494.539 221.192 495.307 221.56 496.267 221.56C497.643 221.56 499.067 221 500.539 219.88C502.011 218.76 503.707 217.112 505.627 214.936L508.027 202.888C507.515 202.44 506.987 202.136 506.443 201.976C505.899 201.784 505.371 201.688 504.859 201.688C503.451 201.688 502.075 202.072 500.731 202.84C499.419 203.608 498.235 204.616 497.179 205.864C495.963 207.336 494.971 209.032 494.203 210.952C493.467 212.872 493.099 214.824 493.099 216.808ZM507.211 217.528C507.115 218.04 507.019 218.552 506.923 219.064C506.859 219.576 506.827 220.008 506.827 220.36C506.827 221.16 507.259 221.56 508.123 221.56C508.859 221.56 509.691 221.208 510.619 220.504C511.547 219.8 512.475 218.856 513.403 217.672L514.123 218.248C513.163 219.656 512.059 220.904 510.811 221.992C509.595 223.08 508.267 223.624 506.827 223.624C506.187 223.624 505.643 223.432 505.195 223.048C504.779 222.664 504.571 222.104 504.571 221.368C504.571 220.92 504.603 220.472 504.667 220.024C504.731 219.544 504.843 218.888 505.003 218.056L505.291 216.664C504.267 217.976 503.163 219.16 501.979 220.216C500.827 221.272 499.659 222.104 498.475 222.712C497.323 223.32 496.219 223.624 495.163 223.624C493.947 223.624 492.923 223.192 492.091 222.328C491.259 221.432 490.843 219.912 490.843 217.768C490.843 216.136 491.131 214.472 491.707 212.776C492.283 211.048 493.067 209.416 494.059 207.88C495.051 206.312 496.171 204.92 497.419 203.704C498.699 202.488 500.043 201.528 501.451 200.824C502.859 200.088 504.251 199.72 505.627 199.72C506.747 199.72 507.707 200.056 508.507 200.728L510.667 189.832L505.243 189.592L505.435 188.632L512.683 187.24L513.211 187.672L507.211 217.528ZM517.971 223L522.339 202.312L516.867 202.12L517.011 201.16L524.115 199.72L524.739 200.2L523.443 207.16C524.147 205.88 524.899 204.68 525.699 203.56C526.531 202.408 527.395 201.48 528.291 200.776C529.219 200.072 530.147 199.72 531.075 199.72C532.579 199.72 533.571 200.12 534.051 200.92C534.019 201.464 533.859 201.912 533.571 202.264C533.283 202.584 532.867 202.744 532.323 202.744C531.811 202.744 531.299 202.632 530.787 202.408C530.307 202.184 529.827 201.896 529.347 201.544C528.195 202.344 527.075 203.464 525.987 204.904C524.931 206.344 523.891 207.992 522.867 209.848L522.195 213.016C521.843 214.68 521.507 216.344 521.187 218.008C520.867 219.64 520.531 221.304 520.179 223L518.307 223.288L517.971 223ZM545.785 201.112C544.729 201.112 543.641 201.464 542.521 202.168C541.433 202.84 540.425 203.768 539.497 204.952C538.569 206.136 537.785 207.464 537.145 208.936C536.537 210.408 536.185 211.928 536.089 213.496C540.377 212.28 543.577 210.824 545.689 209.128C547.801 207.432 548.857 205.704 548.857 203.944C548.857 203.016 548.569 202.312 547.993 201.832C547.449 201.352 546.713 201.112 545.785 201.112ZM540.937 223.624C539.689 223.624 538.537 223.336 537.481 222.76C536.425 222.184 535.577 221.272 534.937 220.024C534.297 218.744 533.977 217.08 533.977 215.032C533.977 213.112 534.313 211.256 534.985 209.464C535.657 207.64 536.569 205.992 537.721 204.52C538.873 203.048 540.185 201.88 541.657 201.016C543.161 200.152 544.729 199.72 546.361 199.72C547.673 199.72 548.745 200.056 549.577 200.728C550.409 201.368 550.825 202.344 550.825 203.656C550.825 205.64 549.625 207.64 547.225 209.656C544.857 211.64 541.129 213.336 536.041 214.744C536.105 217.08 536.633 218.808 537.625 219.928C538.649 221.016 539.993 221.56 541.657 221.56C543.097 221.56 544.361 221.192 545.449 220.456C546.569 219.72 547.561 218.792 548.425 217.672L549.193 218.248C548.169 219.816 546.969 221.112 545.593 222.136C544.217 223.128 542.665 223.624 540.937 223.624ZM546.66 232.456C546.756 231.944 546.98 231.56 547.332 231.304C547.684 231.08 548.1 230.968 548.58 230.968C549.028 230.968 549.46 231.064 549.876 231.256C550.292 231.448 550.756 231.736 551.268 232.12L551.892 232.6C553.364 231.768 554.772 230.68 556.116 229.336C557.588 227.864 558.996 226.168 560.34 224.248C560.212 221.752 560.052 219.528 559.86 217.576C559.7 215.592 559.508 213.72 559.284 211.96C559.092 210.168 558.852 208.312 558.564 206.392C558.372 205.08 558.196 204.104 558.036 203.464C557.876 202.792 557.684 202.344 557.46 202.12C557.268 201.896 556.996 201.784 556.644 201.784C556.196 201.784 555.684 202.008 555.108 202.456C554.564 202.904 553.86 203.896 552.996 205.432L552.18 204.952C553.044 203.032 553.924 201.688 554.82 200.92C555.748 200.12 556.676 199.72 557.604 199.72C558.5 199.72 559.172 200.056 559.62 200.728C560.1 201.4 560.452 202.776 560.676 204.856C560.996 207.544 561.252 210.248 561.444 212.968C561.668 215.688 561.844 218.568 561.972 221.608C563.828 218.376 565.428 215.368 566.772 212.584C568.116 209.768 569.076 207.368 569.652 205.384C570.164 203.752 570.58 202.536 570.9 201.736C571.22 200.904 571.508 200.344 571.764 200.056C572.02 199.768 572.308 199.624 572.628 199.624C573.428 199.624 573.828 199.992 573.828 200.728C573.828 201.08 573.78 201.448 573.684 201.832C573.588 202.184 573.38 202.68 573.06 203.32C572.644 204.248 572.196 205.176 571.716 206.104C571.268 207.032 570.676 208.2 569.94 209.608C568.98 211.464 568.1 213.144 567.3 214.648C566.5 216.12 565.732 217.512 564.996 218.824C564.26 220.104 563.476 221.4 562.644 222.712C561.748 224.088 560.852 225.368 559.956 226.552C559.092 227.736 558.1 228.936 556.98 230.152C555.764 231.432 554.5 232.504 553.188 233.368C551.908 234.232 550.756 234.664 549.732 234.664C548.9 234.664 548.212 234.456 547.668 234.04C547.124 233.656 546.788 233.128 546.66 232.456ZM589.78 191.992L590.02 190.648H600.532C603.956 190.648 606.452 191.272 608.02 192.52C609.62 193.736 610.42 195.304 610.42 197.224C610.42 199.4 609.7 201.288 608.26 202.888C606.852 204.456 604.772 205.512 602.02 206.056C604.644 206.44 606.58 207.32 607.828 208.696C609.076 210.04 609.7 211.608 609.7 213.4C609.7 216.408 608.564 218.76 606.292 220.456C604.052 222.152 600.932 223 596.932 223H584.452L584.74 221.656L589.396 221.272L592.372 205.624C592.788 203.416 593.188 201.208 593.572 199C593.956 196.792 594.308 194.584 594.628 192.376L589.78 191.992ZM594.34 208.024C593.924 210.264 593.508 212.504 593.092 214.744C592.708 216.984 592.34 219.224 591.988 221.464H596.884C600.212 221.464 602.74 220.76 604.468 219.352C606.228 217.912 607.108 215.928 607.108 213.4C607.108 211.288 606.308 209.672 604.708 208.552C603.108 207.432 600.74 206.872 597.604 206.872H594.58L594.34 208.024ZM599.812 192.184H597.316L594.82 205.384H597.748C601.236 205.384 603.796 204.696 605.428 203.32C607.092 201.944 607.924 200.088 607.924 197.752C607.924 195.992 607.316 194.632 606.1 193.672C604.916 192.68 602.82 192.184 599.812 192.184ZM626.363 201.112C625.307 201.112 624.219 201.464 623.099 202.168C622.011 202.84 621.003 203.768 620.075 204.952C619.147 206.136 618.363 207.464 617.723 208.936C617.115 210.408 616.763 211.928 616.667 213.496C620.955 212.28 624.155 210.824 626.267 209.128C628.379 207.432 629.435 205.704 629.435 203.944C629.435 203.016 629.147 202.312 628.571 201.832C628.027 201.352 627.291 201.112 626.363 201.112ZM621.515 223.624C620.267 223.624 619.115 223.336 618.059 222.76C617.003 222.184 616.155 221.272 615.515 220.024C614.875 218.744 614.555 217.08 614.555 215.032C614.555 213.112 614.891 211.256 615.563 209.464C616.235 207.64 617.147 205.992 618.299 204.52C619.451 203.048 620.763 201.88 622.235 201.016C623.739 200.152 625.307 199.72 626.939 199.72C628.251 199.72 629.323 200.056 630.155 200.728C630.987 201.368 631.403 202.344 631.403 203.656C631.403 205.64 630.203 207.64 627.803 209.656C625.435 211.64 621.707 213.336 616.619 214.744C616.683 217.08 617.211 218.808 618.203 219.928C619.227 221.016 620.571 221.56 622.235 221.56C623.675 221.56 624.939 221.192 626.027 220.456C627.147 219.72 628.139 218.792 629.003 217.672L629.771 218.248C628.747 219.816 627.547 221.112 626.171 222.136C624.795 223.128 623.243 223.624 621.515 223.624ZM636.507 223.624C635.867 223.624 635.323 223.416 634.875 223C634.427 222.584 634.203 221.992 634.203 221.224C634.203 220.776 634.235 220.328 634.299 219.88C634.395 219.432 634.507 218.824 634.635 218.056L638.475 198.952C638.795 197.416 639.099 195.896 639.387 194.392C639.675 192.856 639.931 191.32 640.155 189.784L634.923 189.592L635.067 188.632L642.411 187.24L642.939 187.672L636.891 217.528C636.763 218.04 636.651 218.552 636.555 219.064C636.491 219.576 636.459 219.992 636.459 220.312C636.459 221.144 636.907 221.56 637.803 221.56C638.475 221.56 639.259 221.208 640.155 220.504C641.051 219.8 641.995 218.856 642.987 217.672L643.707 218.248C642.715 219.688 641.627 220.952 640.443 222.04C639.291 223.096 637.979 223.624 636.507 223.624ZM646.67 223.288L646.334 223L651.182 198.952C651.502 197.416 651.806 195.896 652.094 194.392C652.382 192.856 652.654 191.32 652.91 189.784L647.63 189.592L647.774 188.632L655.166 187.24L655.646 187.672L652.046 205.336C653.198 204.216 654.382 203.24 655.598 202.408C656.846 201.576 658.046 200.92 659.198 200.44C660.35 199.96 661.358 199.72 662.222 199.72C663.246 199.72 664.014 200.008 664.526 200.584C665.07 201.128 665.342 201.896 665.342 202.888C665.342 203.656 665.246 204.408 665.054 205.144C664.894 205.88 664.718 206.696 664.526 207.592L662.174 217.528C662.046 218.072 661.918 218.616 661.79 219.16C661.662 219.672 661.598 220.104 661.598 220.456C661.598 221.192 661.998 221.56 662.798 221.56C663.534 221.56 664.35 221.208 665.246 220.504C666.174 219.8 667.118 218.856 668.078 217.672L668.798 218.248C667.838 219.688 666.734 220.952 665.486 222.04C664.238 223.096 662.894 223.624 661.454 223.624C660.814 223.624 660.286 223.432 659.87 223.048C659.486 222.696 659.294 222.232 659.294 221.656C659.294 221.048 659.342 220.504 659.438 220.024C659.566 219.544 659.726 218.888 659.918 218.056L662.27 208.168C662.43 207.368 662.59 206.6 662.75 205.864C662.91 205.128 662.99 204.472 662.99 203.896C662.99 203.096 662.83 202.536 662.51 202.216C662.19 201.896 661.71 201.736 661.07 201.736C659.982 201.736 658.686 202.136 657.182 202.936C655.71 203.704 653.886 205.016 651.71 206.872L650.462 213.016C650.142 214.68 649.806 216.344 649.454 218.008C649.134 219.672 648.83 221.336 648.542 223L646.67 223.288ZM679.275 223.624C678.027 223.624 676.827 223.336 675.675 222.76C674.555 222.184 673.627 221.272 672.891 220.024C672.155 218.776 671.787 217.176 671.787 215.224C671.787 213.272 672.075 211.368 672.651 209.512C673.259 207.656 674.091 205.992 675.147 204.52C676.235 203.048 677.499 201.88 678.939 201.016C680.379 200.152 681.931 199.72 683.595 199.72C685.675 199.72 687.435 200.408 688.875 201.784C690.315 203.128 691.035 205.272 691.035 208.216C691.035 210.232 690.731 212.168 690.123 214.024C689.515 215.88 688.667 217.528 687.579 218.968C686.523 220.408 685.275 221.544 683.835 222.376C682.427 223.208 680.907 223.624 679.275 223.624ZM679.563 222.28C680.907 222.28 682.123 221.88 683.211 221.08C684.331 220.28 685.291 219.224 686.091 217.912C686.923 216.6 687.563 215.144 688.011 213.544C688.459 211.944 688.683 210.344 688.683 208.744C688.683 206.024 688.187 204.072 687.195 202.888C686.203 201.704 684.923 201.112 683.355 201.112C682.011 201.112 680.779 201.512 679.659 202.312C678.539 203.08 677.563 204.136 676.731 205.48C675.899 206.792 675.259 208.264 674.811 209.896C674.363 211.528 674.139 213.176 674.139 214.84C674.139 217.432 674.667 219.32 675.723 220.504C676.779 221.688 678.059 222.28 679.563 222.28ZM707.472 217.144C707.472 219.16 706.752 220.744 705.312 221.896C703.904 223.048 702.112 223.624 699.936 223.624C698.176 223.624 696.816 223.272 695.856 222.568C694.928 221.832 694.288 220.728 693.936 219.256C694 218.936 694.144 218.68 694.368 218.488C694.624 218.264 694.896 218.152 695.184 218.152C695.952 218.152 696.48 218.584 696.768 219.448L697.536 221.992C698.176 222.184 698.88 222.28 699.648 222.28C701.44 222.28 702.848 221.848 703.872 220.984C704.896 220.12 705.408 219.016 705.408 217.672C705.408 216.744 705.152 215.88 704.64 215.08C704.128 214.28 703.168 213.4 701.76 212.44C700.448 211.512 699.408 210.568 698.64 209.608C697.872 208.648 697.488 207.48 697.488 206.104C697.488 204.216 698.144 202.68 699.456 201.496C700.768 200.312 702.48 199.72 704.592 199.72C706.032 199.72 707.232 200.056 708.192 200.728C709.184 201.368 709.84 202.28 710.16 203.464C710 204.136 709.568 204.472 708.864 204.472C708.096 204.472 707.536 203.992 707.184 203.032L706.464 201.304C705.92 201.144 705.392 201.064 704.88 201.064C703.088 201.064 701.76 201.496 700.896 202.36C700.032 203.224 699.6 204.28 699.6 205.528C699.6 206.712 699.872 207.64 700.416 208.312C700.992 208.984 701.936 209.816 703.248 210.808C704.816 211.96 705.904 213 706.512 213.928C707.152 214.856 707.472 215.928 707.472 217.144ZM714.634 218.056L718.09 201.784H712.57L712.81 200.584L718.522 200.2L720.298 193.768H721.93L720.586 200.2H727.066L726.826 201.976L720.202 201.784L716.89 217.528C716.762 218.04 716.65 218.552 716.554 219.064C716.458 219.576 716.41 220.008 716.41 220.36C716.41 221.16 716.842 221.56 717.706 221.56C718.442 221.56 719.258 221.224 720.154 220.552C721.05 219.848 721.994 218.888 722.986 217.672L723.706 218.248C722.714 219.688 721.61 220.952 720.394 222.04C719.178 223.096 717.834 223.624 716.362 223.624C715.754 223.624 715.226 223.432 714.778 223.048C714.362 222.664 714.154 222.136 714.154 221.464C714.154 220.952 714.186 220.472 714.25 220.024C714.314 219.544 714.442 218.888 714.634 218.056ZM739.988 201.112C738.932 201.112 737.844 201.464 736.724 202.168C735.636 202.84 734.628 203.768 733.7 204.952C732.772 206.136 731.988 207.464 731.348 208.936C730.74 210.408 730.388 211.928 730.292 213.496C734.58 212.28 737.78 210.824 739.892 209.128C742.004 207.432 743.06 205.704 743.06 203.944C743.06 203.016 742.772 202.312 742.196 201.832C741.652 201.352 740.916 201.112 739.988 201.112ZM735.14 223.624C733.892 223.624 732.74 223.336 731.684 222.76C730.628 222.184 729.78 221.272 729.14 220.024C728.5 218.744 728.18 217.08 728.18 215.032C728.18 213.112 728.516 211.256 729.188 209.464C729.86 207.64 730.772 205.992 731.924 204.52C733.076 203.048 734.388 201.88 735.86 201.016C737.364 200.152 738.932 199.72 740.564 199.72C741.876 199.72 742.948 200.056 743.78 200.728C744.612 201.368 745.028 202.344 745.028 203.656C745.028 205.64 743.828 207.64 741.428 209.656C739.06 211.64 735.332 213.336 730.244 214.744C730.308 217.08 730.836 218.808 731.828 219.928C732.852 221.016 734.196 221.56 735.86 221.56C737.3 221.56 738.564 221.192 739.652 220.456C740.772 219.72 741.764 218.792 742.628 217.672L743.396 218.248C742.372 219.816 741.172 221.112 739.796 222.136C738.42 223.128 736.868 223.624 735.14 223.624ZM750.319 223.336C749.711 223.336 749.231 223.16 748.879 222.808C748.527 222.424 748.351 221.976 748.351 221.464C748.351 220.824 748.575 220.296 749.023 219.88C749.503 219.432 750.063 219.208 750.703 219.208C751.279 219.208 751.727 219.4 752.047 219.784C752.399 220.136 752.575 220.568 752.575 221.08C752.575 221.752 752.351 222.296 751.903 222.712C751.487 223.128 750.959 223.336 750.319 223.336Z" fill="black"/>
<path d="M787.551 459.065C779.496 477.228 761.92 490.402 736.542 498.48C711.167 506.557 678.222 509.455 639.907 507.211C563.293 502.723 465.65 477.706 365.19 433.156C264.731 388.606 180.639 333.031 125.881 279.259C98.4961 252.368 78.5271 226.005 67.4787 201.775C56.429 177.543 54.3938 155.672 62.4487 137.509C70.5036 119.345 88.0801 106.171 113.458 98.0931C138.833 90.0163 171.778 87.1187 210.093 89.3627C286.707 93.8498 384.35 118.867 484.81 163.417C585.269 207.967 669.361 263.542 724.119 317.314C751.504 344.206 771.473 370.569 782.521 394.798C793.571 419.03 795.606 440.901 787.551 459.065Z" stroke="#FCEFBB" stroke-width="4"/>
<path d="M95.2 323.16V322.04H106.04V323.16L102 323.48C101.973 325.293 101.947 327.133 101.92 329C101.92 330.84 101.92 332.693 101.92 334.56V341.76C101.92 343.547 101.88 345.053 101.8 346.28C101.72 347.507 101.573 348.52 101.36 349.32C101.173 350.147 100.907 350.84 100.56 351.4C100.213 351.987 99.7733 352.547 99.24 353.08C98.6 353.72 97.8533 354.213 97 354.56C96.1733 354.933 95.28 355.12 94.32 355.12C93.6533 355.12 93.08 355.027 92.6 354.84C92.0933 354.653 91.7467 354.32 91.56 353.84C91.6667 353.36 91.8933 353.013 92.24 352.8C92.5867 352.587 93 352.48 93.48 352.48C94.3067 352.48 95.1733 352.773 96.08 353.36L96.68 353.76C97.48 353.307 98.2 352.533 98.84 351.44C99.5067 350.373 99.84 348.787 99.84 346.68C99.84 346.333 99.84 345.92 99.84 345.44C99.84 344.933 99.8267 344.213 99.8 343.28C99.8 342.347 99.7867 341.067 99.76 339.44C99.76 337.787 99.7467 335.667 99.72 333.08C99.72 330.493 99.6933 327.293 99.64 323.48L95.2 323.16ZM117.157 330.84C116.037 330.84 114.997 331.147 114.037 331.76C113.103 332.347 112.33 333.187 111.717 334.28C111.13 335.373 110.77 336.667 110.637 338.16H121.077C121.637 338.16 122.01 338.013 122.197 337.72C122.41 337.427 122.517 336.987 122.517 336.4C122.517 335.44 122.303 334.533 121.877 333.68C121.45 332.827 120.837 332.147 120.037 331.64C119.237 331.107 118.277 330.84 117.157 330.84ZM117.317 349.52C115.717 349.52 114.25 349.16 112.917 348.44C111.583 347.693 110.503 346.587 109.677 345.12C108.877 343.653 108.477 341.813 108.477 339.6C108.477 337.573 108.877 335.813 109.677 334.32C110.503 332.827 111.583 331.667 112.917 330.84C114.25 330.013 115.69 329.6 117.237 329.6C118.703 329.6 119.983 329.933 121.077 330.6C122.17 331.24 123.01 332.12 123.597 333.24C124.21 334.36 124.517 335.64 124.517 337.08C124.517 337.56 124.49 337.987 124.437 338.36C124.383 338.733 124.317 339.067 124.237 339.36L110.597 339.32C110.623 341.293 110.957 342.92 111.597 344.2C112.263 345.453 113.13 346.387 114.197 347C115.29 347.587 116.477 347.88 117.757 347.88C119.037 347.88 120.17 347.64 121.157 347.16C122.143 346.68 123.01 346.027 123.757 345.2L124.397 345.76C123.65 346.907 122.65 347.827 121.397 348.52C120.17 349.187 118.81 349.52 117.317 349.52ZM144.126 349.52C143.006 349.52 141.993 349.4 141.086 349.16C140.206 348.92 139.286 348.587 138.326 348.16L138.166 344H139.566L140.206 347.52C140.739 347.787 141.326 347.987 141.966 348.12C142.606 348.253 143.353 348.32 144.206 348.32C145.939 348.32 147.233 347.973 148.086 347.28C148.939 346.56 149.366 345.667 149.366 344.6C149.366 343.667 149.059 342.907 148.446 342.32C147.833 341.733 146.779 341.173 145.286 340.64L143.406 339.96C141.966 339.427 140.806 338.76 139.926 337.96C139.073 337.16 138.646 336.093 138.646 334.76C138.646 333.32 139.193 332.107 140.286 331.12C141.406 330.107 143.006 329.6 145.086 329.6C146.179 329.6 147.126 329.747 147.926 330.04C148.726 330.307 149.579 330.707 150.486 331.24L150.366 335H149.046L148.606 331.8C147.993 331.427 147.379 331.173 146.766 331.04C146.179 330.907 145.579 330.84 144.966 330.84C143.499 330.84 142.393 331.173 141.646 331.84C140.926 332.48 140.566 333.293 140.566 334.28C140.566 335.267 140.873 336.027 141.486 336.56C142.126 337.093 143.126 337.613 144.486 338.12L146.166 338.76C148.059 339.453 149.379 340.227 150.126 341.08C150.899 341.907 151.286 342.933 151.286 344.16C151.286 345.093 151.019 345.973 150.486 346.8C149.979 347.627 149.193 348.293 148.126 348.8C147.086 349.28 145.753 349.52 144.126 349.52ZM163.074 349.52C161.314 349.52 159.968 348.973 159.034 347.88C158.128 346.787 157.688 344.867 157.714 342.12L157.834 331.76L154.554 331.36V330.28L159.514 329.96L159.874 330.4L159.714 335.96V341.88C159.714 344.04 160.048 345.56 160.714 346.44C161.408 347.293 162.408 347.72 163.714 347.72C164.888 347.72 166.021 347.427 167.114 346.84C168.234 346.227 169.288 345.347 170.274 344.2L170.354 331.72L167.114 331.36V330.28L172.034 329.96L172.394 330.4L172.274 335.96V347.6L175.274 347.96V349L170.434 349.28L170.314 345.48C169.328 346.707 168.221 347.693 166.994 348.44C165.794 349.16 164.488 349.52 163.074 349.52ZM178.743 349V347.96L182.103 347.56C182.13 346.547 182.143 345.387 182.143 344.08C182.17 342.747 182.183 341.587 182.183 340.6V338.68C182.183 337.507 182.183 336.4 182.183 335.36C182.183 334.32 182.157 333.267 182.103 332.2L178.543 332.04V331L183.743 329.72L184.223 330.04L184.143 335V340.6C184.143 341.587 184.143 342.747 184.143 344.08C184.17 345.387 184.197 346.547 184.223 347.56L187.303 347.96V349H178.743ZM182.983 323.92C182.477 323.92 182.037 323.76 181.663 323.44C181.317 323.12 181.143 322.693 181.143 322.16C181.143 321.6 181.317 321.16 181.663 320.84C182.037 320.52 182.477 320.36 182.983 320.36C183.49 320.36 183.917 320.52 184.263 320.84C184.637 321.16 184.823 321.6 184.823 322.16C184.823 322.693 184.637 323.12 184.263 323.44C183.917 323.76 183.49 323.92 182.983 323.92ZM197.095 349.52C195.975 349.52 194.961 349.4 194.055 349.16C193.175 348.92 192.255 348.587 191.295 348.16L191.135 344H192.535L193.175 347.52C193.708 347.787 194.295 347.987 194.935 348.12C195.575 348.253 196.321 348.32 197.175 348.32C198.908 348.32 200.201 347.973 201.055 347.28C201.908 346.56 202.335 345.667 202.335 344.6C202.335 343.667 202.028 342.907 201.415 342.32C200.801 341.733 199.748 341.173 198.255 340.64L196.375 339.96C194.935 339.427 193.775 338.76 192.895 337.96C192.041 337.16 191.615 336.093 191.615 334.76C191.615 333.32 192.161 332.107 193.255 331.12C194.375 330.107 195.975 329.6 198.055 329.6C199.148 329.6 200.095 329.747 200.895 330.04C201.695 330.307 202.548 330.707 203.455 331.24L203.335 335H202.015L201.575 331.8C200.961 331.427 200.348 331.173 199.735 331.04C199.148 330.907 198.548 330.84 197.935 330.84C196.468 330.84 195.361 331.173 194.615 331.84C193.895 332.48 193.535 333.293 193.535 334.28C193.535 335.267 193.841 336.027 194.455 336.56C195.095 337.093 196.095 337.613 197.455 338.12L199.135 338.76C201.028 339.453 202.348 340.227 203.095 341.08C203.868 341.907 204.255 342.933 204.255 344.16C204.255 345.093 203.988 345.973 203.455 346.8C202.948 347.627 202.161 348.293 201.095 348.8C200.055 349.28 198.721 349.52 197.095 349.52ZM220.011 339.8C220.011 342.547 220.611 344.613 221.811 346C223.011 347.36 224.504 348.04 226.291 348.04C227.384 348.04 228.371 347.8 229.251 347.32C230.157 346.84 231.064 346.067 231.971 345V333.8C231.064 332.867 230.171 332.187 229.291 331.76C228.411 331.333 227.504 331.12 226.571 331.12C225.371 331.12 224.277 331.427 223.291 332.04C222.304 332.653 221.504 333.6 220.891 334.88C220.304 336.16 220.011 337.8 220.011 339.8ZM232.051 349.32L231.971 346.36C231.144 347.453 230.224 348.253 229.211 348.76C228.197 349.267 227.077 349.52 225.851 349.52C224.277 349.52 222.891 349.107 221.691 348.28C220.491 347.453 219.557 346.307 218.891 344.84C218.224 343.373 217.891 341.707 217.891 339.84C217.891 337.733 218.264 335.92 219.011 334.4C219.757 332.88 220.771 331.707 222.051 330.88C223.331 330.027 224.771 329.6 226.371 329.6C227.304 329.6 228.251 329.827 229.211 330.28C230.197 330.733 231.131 331.507 232.011 332.6V321.44L228.451 321.28V320.24L233.491 319.2L234.051 319.52L233.931 325.12V347.64L237.811 347.96V349L232.051 349.32ZM249.422 330.84C248.302 330.84 247.262 331.147 246.302 331.76C245.369 332.347 244.596 333.187 243.982 334.28C243.396 335.373 243.036 336.667 242.902 338.16H253.342C253.902 338.16 254.276 338.013 254.462 337.72C254.676 337.427 254.782 336.987 254.782 336.4C254.782 335.44 254.569 334.533 254.142 333.68C253.716 332.827 253.102 332.147 252.302 331.64C251.502 331.107 250.542 330.84 249.422 330.84ZM249.582 349.52C247.982 349.52 246.516 349.16 245.182 348.44C243.849 347.693 242.769 346.587 241.942 345.12C241.142 343.653 240.742 341.813 240.742 339.6C240.742 337.573 241.142 335.813 241.942 334.32C242.769 332.827 243.849 331.667 245.182 330.84C246.516 330.013 247.956 329.6 249.502 329.6C250.969 329.6 252.249 329.933 253.342 330.6C254.436 331.24 255.276 332.12 255.862 333.24C256.476 334.36 256.782 335.64 256.782 337.08C256.782 337.56 256.756 337.987 256.702 338.36C256.649 338.733 256.582 339.067 256.502 339.36L242.862 339.32C242.889 341.293 243.222 342.92 243.862 344.2C244.529 345.453 245.396 346.387 246.462 347C247.556 347.587 248.742 347.88 250.022 347.88C251.302 347.88 252.436 347.64 253.422 347.16C254.409 346.68 255.276 346.027 256.022 345.2L256.662 345.76C255.916 346.907 254.916 347.827 253.662 348.52C252.436 349.187 251.076 349.52 249.582 349.52ZM247.662 326.04C248.329 325.08 248.982 324.133 249.622 323.2C250.289 322.24 250.916 321.36 251.502 320.56C251.876 320.027 252.182 319.667 252.422 319.48C252.662 319.267 252.916 319.16 253.182 319.16C253.449 319.16 253.676 319.253 253.862 319.44C254.076 319.6 254.182 319.84 254.182 320.16C254.182 320.4 254.089 320.653 253.902 320.92C253.716 321.187 253.396 321.547 252.942 322C252.276 322.667 251.542 323.4 250.742 324.2C249.969 324.973 249.156 325.76 248.302 326.56L247.662 326.04ZM270.788 331.24V330.12H278.228V331.24L275.668 331.56L269.068 349.24H267.988L260.948 331.52L258.268 331.24V330.12H266.748V331.24L263.308 331.56L268.908 346.56L274.268 331.6L270.788 331.24ZM288.524 330.84C287.404 330.84 286.364 331.147 285.404 331.76C284.47 332.347 283.697 333.187 283.084 334.28C282.497 335.373 282.137 336.667 282.004 338.16H292.444C293.004 338.16 293.377 338.013 293.564 337.72C293.777 337.427 293.884 336.987 293.884 336.4C293.884 335.44 293.67 334.533 293.244 333.68C292.817 332.827 292.204 332.147 291.404 331.64C290.604 331.107 289.644 330.84 288.524 330.84ZM288.684 349.52C287.084 349.52 285.617 349.16 284.284 348.44C282.95 347.693 281.87 346.587 281.044 345.12C280.244 343.653 279.844 341.813 279.844 339.6C279.844 337.573 280.244 335.813 281.044 334.32C281.87 332.827 282.95 331.667 284.284 330.84C285.617 330.013 287.057 329.6 288.604 329.6C290.07 329.6 291.35 329.933 292.444 330.6C293.537 331.24 294.377 332.12 294.964 333.24C295.577 334.36 295.884 335.64 295.884 337.08C295.884 337.56 295.857 337.987 295.804 338.36C295.75 338.733 295.684 339.067 295.604 339.36L281.964 339.32C281.99 341.293 282.324 342.92 282.964 344.2C283.63 345.453 284.497 346.387 285.564 347C286.657 347.587 287.844 347.88 289.124 347.88C290.404 347.88 291.537 347.64 292.524 347.16C293.51 346.68 294.377 346.027 295.124 345.2L295.764 345.76C295.017 346.907 294.017 347.827 292.764 348.52C291.537 349.187 290.177 349.52 288.684 349.52ZM298.695 349V347.96L302.375 347.56C302.402 346.493 302.415 345.333 302.415 344.08C302.442 342.8 302.455 341.64 302.455 340.6V321.44L298.935 321.28V320.24L303.975 319.2L304.535 319.52L304.415 325.2V340.6C304.415 341.64 304.415 342.8 304.415 344.08C304.442 345.333 304.468 346.493 304.495 347.56L308.095 347.96V349H298.695ZM320.207 349.52C318.741 349.52 317.327 349.173 315.967 348.48C314.634 347.76 313.527 346.667 312.647 345.2C311.794 343.733 311.367 341.88 311.367 339.64C311.367 337.373 311.794 335.507 312.647 334.04C313.527 332.547 314.634 331.44 315.967 330.72C317.327 329.973 318.741 329.6 320.207 329.6C321.674 329.6 323.074 329.973 324.407 330.72C325.767 331.44 326.887 332.547 327.767 334.04C328.647 335.507 329.087 337.373 329.087 339.64C329.087 341.88 328.647 343.733 327.767 345.2C326.887 346.667 325.767 347.76 324.407 348.48C323.074 349.173 321.674 349.52 320.207 349.52ZM320.207 348.32C322.234 348.32 323.847 347.56 325.047 346.04C326.247 344.52 326.847 342.387 326.847 339.64C326.847 336.867 326.247 334.707 325.047 333.16C323.847 331.613 322.234 330.84 320.207 330.84C318.181 330.84 316.567 331.613 315.367 333.16C314.167 334.707 313.567 336.867 313.567 339.64C313.567 342.387 314.167 344.52 315.367 346.04C316.567 347.56 318.181 348.32 320.207 348.32ZM343.811 331.12C342.904 331.12 341.971 331.333 341.011 331.76C340.077 332.16 339.077 332.893 338.011 333.96V345.44C338.971 346.4 339.891 347.08 340.771 347.48C341.677 347.853 342.637 348.04 343.651 348.04C344.771 348.04 345.797 347.747 346.731 347.16C347.664 346.573 348.411 345.653 348.971 344.4C349.557 343.147 349.851 341.52 349.851 339.52C349.851 336.773 349.277 334.693 348.131 333.28C347.011 331.84 345.571 331.12 343.811 331.12ZM343.931 349.52C342.944 349.52 341.931 349.333 340.891 348.96C339.851 348.56 338.864 347.813 337.931 346.72V350.28C337.931 351.32 337.931 352.467 337.931 353.72C337.957 355 337.984 356.187 338.011 357.28L341.931 357.68V358.72H332.491V357.68L335.931 357.28C335.957 356.213 335.971 355.04 335.971 353.76C335.997 352.507 336.011 351.36 336.011 350.32V338.76C336.011 336.227 335.971 334.04 335.891 332.2L332.411 332.04V331L337.291 329.72L337.771 330.04L337.891 332.84C338.877 331.667 339.931 330.84 341.051 330.36C342.171 329.853 343.264 329.6 344.331 329.6C345.851 329.6 347.184 330.013 348.331 330.84C349.477 331.64 350.371 332.773 351.011 334.24C351.677 335.707 352.011 337.413 352.011 339.36C352.011 341.413 351.664 343.213 350.971 344.76C350.304 346.28 349.357 347.453 348.131 348.28C346.931 349.107 345.531 349.52 343.931 349.52ZM366.74 331.12C365.834 331.12 364.9 331.333 363.94 331.76C363.007 332.16 362.007 332.893 360.94 333.96V345.44C361.9 346.4 362.82 347.08 363.7 347.48C364.607 347.853 365.567 348.04 366.58 348.04C367.7 348.04 368.727 347.747 369.66 347.16C370.594 346.573 371.34 345.653 371.9 344.4C372.487 343.147 372.78 341.52 372.78 339.52C372.78 336.773 372.207 334.693 371.06 333.28C369.94 331.84 368.5 331.12 366.74 331.12ZM366.86 349.52C365.874 349.52 364.86 349.333 363.82 348.96C362.78 348.56 361.794 347.813 360.86 346.72V350.28C360.86 351.32 360.86 352.467 360.86 353.72C360.887 355 360.914 356.187 360.94 357.28L364.86 357.68V358.72H355.42V357.68L358.86 357.28C358.887 356.213 358.9 355.04 358.9 353.76C358.927 352.507 358.94 351.36 358.94 350.32V338.76C358.94 336.227 358.9 334.04 358.82 332.2L355.34 332.04V331L360.22 329.72L360.7 330.04L360.82 332.84C361.807 331.667 362.86 330.84 363.98 330.36C365.1 329.853 366.194 329.6 367.26 329.6C368.78 329.6 370.114 330.013 371.26 330.84C372.407 331.64 373.3 332.773 373.94 334.24C374.607 335.707 374.94 337.413 374.94 339.36C374.94 341.413 374.594 343.213 373.9 344.76C373.234 346.28 372.287 347.453 371.06 348.28C369.86 349.107 368.46 349.52 366.86 349.52ZM387.586 330.84C386.466 330.84 385.426 331.147 384.466 331.76C383.533 332.347 382.76 333.187 382.146 334.28C381.56 335.373 381.2 336.667 381.066 338.16H391.506C392.066 338.16 392.44 338.013 392.626 337.72C392.84 337.427 392.946 336.987 392.946 336.4C392.946 335.44 392.733 334.533 392.306 333.68C391.88 332.827 391.266 332.147 390.466 331.64C389.666 331.107 388.706 330.84 387.586 330.84ZM387.746 349.52C386.146 349.52 384.68 349.16 383.346 348.44C382.013 347.693 380.933 346.587 380.106 345.12C379.306 343.653 378.906 341.813 378.906 339.6C378.906 337.573 379.306 335.813 380.106 334.32C380.933 332.827 382.013 331.667 383.346 330.84C384.68 330.013 386.12 329.6 387.666 329.6C389.133 329.6 390.413 329.933 391.506 330.6C392.6 331.24 393.44 332.12 394.026 333.24C394.64 334.36 394.946 335.64 394.946 337.08C394.946 337.56 394.92 337.987 394.866 338.36C394.813 338.733 394.746 339.067 394.666 339.36L381.026 339.32C381.053 341.293 381.386 342.92 382.026 344.2C382.693 345.453 383.56 346.387 384.626 347C385.72 347.587 386.906 347.88 388.186 347.88C389.466 347.88 390.6 347.64 391.586 347.16C392.573 346.68 393.44 346.027 394.186 345.2L394.826 345.76C394.08 346.907 393.08 347.827 391.826 348.52C390.6 349.187 389.24 349.52 387.746 349.52ZM406.668 349.52C404.908 349.52 403.561 348.973 402.628 347.88C401.721 346.787 401.281 344.867 401.308 342.12L401.428 331.76L398.148 331.36V330.28L403.108 329.96L403.468 330.4L403.308 335.96V341.88C403.308 344.04 403.641 345.56 404.308 346.44C405.001 347.293 406.001 347.72 407.308 347.72C408.481 347.72 409.615 347.427 410.708 346.84C411.828 346.227 412.881 345.347 413.868 344.2L413.948 331.72L410.708 331.36V330.28L415.628 329.96L415.988 330.4L415.868 335.96V347.6L418.868 347.96V349L414.028 349.28L413.908 345.48C412.921 346.707 411.815 347.693 410.588 348.44C409.388 349.16 408.081 349.52 406.668 349.52ZM428.657 349.52C427.537 349.52 426.524 349.4 425.617 349.16C424.737 348.92 423.817 348.587 422.857 348.16L422.697 344H424.097L424.737 347.52C425.271 347.787 425.857 347.987 426.497 348.12C427.137 348.253 427.884 348.32 428.737 348.32C430.471 348.32 431.764 347.973 432.617 347.28C433.471 346.56 433.897 345.667 433.897 344.6C433.897 343.667 433.591 342.907 432.977 342.32C432.364 341.733 431.311 341.173 429.817 340.64L427.937 339.96C426.497 339.427 425.337 338.76 424.457 337.96C423.604 337.16 423.177 336.093 423.177 334.76C423.177 333.32 423.724 332.107 424.817 331.12C425.937 330.107 427.537 329.6 429.617 329.6C430.711 329.6 431.657 329.747 432.457 330.04C433.257 330.307 434.111 330.707 435.017 331.24L434.897 335H433.577L433.137 331.8C432.524 331.427 431.911 331.173 431.297 331.04C430.711 330.907 430.111 330.84 429.497 330.84C428.031 330.84 426.924 331.173 426.177 331.84C425.457 332.48 425.097 333.293 425.097 334.28C425.097 335.267 425.404 336.027 426.017 336.56C426.657 337.093 427.657 337.613 429.017 338.12L430.697 338.76C432.591 339.453 433.911 340.227 434.657 341.08C435.431 341.907 435.817 342.933 435.817 344.16C435.817 345.093 435.551 345.973 435.017 346.8C434.511 347.627 433.724 348.293 432.657 348.8C431.617 349.28 430.284 349.52 428.657 349.52ZM448.446 330.84C447.326 330.84 446.286 331.147 445.326 331.76C444.392 332.347 443.619 333.187 443.006 334.28C442.419 335.373 442.059 336.667 441.926 338.16H452.366C452.926 338.16 453.299 338.013 453.486 337.72C453.699 337.427 453.806 336.987 453.806 336.4C453.806 335.44 453.592 334.533 453.166 333.68C452.739 332.827 452.126 332.147 451.326 331.64C450.526 331.107 449.566 330.84 448.446 330.84ZM448.606 349.52C447.006 349.52 445.539 349.16 444.206 348.44C442.872 347.693 441.792 346.587 440.966 345.12C440.166 343.653 439.766 341.813 439.766 339.6C439.766 337.573 440.166 335.813 440.966 334.32C441.792 332.827 442.872 331.667 444.206 330.84C445.539 330.013 446.979 329.6 448.526 329.6C449.992 329.6 451.272 329.933 452.366 330.6C453.459 331.24 454.299 332.12 454.886 333.24C455.499 334.36 455.806 335.64 455.806 337.08C455.806 337.56 455.779 337.987 455.726 338.36C455.672 338.733 455.606 339.067 455.526 339.36L441.886 339.32C441.912 341.293 442.246 342.92 442.886 344.2C443.552 345.453 444.419 346.387 445.486 347C446.579 347.587 447.766 347.88 449.046 347.88C450.326 347.88 451.459 347.64 452.446 347.16C453.432 346.68 454.299 346.027 455.046 345.2L455.686 345.76C454.939 346.907 453.939 347.827 452.686 348.52C451.459 349.187 450.099 349.52 448.606 349.52ZM490.295 331.24V330.12H497.615V331.24L495.175 331.6L489.375 349.24H488.415L482.815 333.12L477.095 349.24H476.095L469.895 331.56L467.255 331.24V330.12H475.535V331.24L472.135 331.56L476.935 346.16L482.135 331.56L479.135 331.24V330.12H487.055V331.24L484.015 331.56L489.215 346.04L493.735 331.6L490.295 331.24ZM508.016 330.84C506.896 330.84 505.856 331.147 504.896 331.76C503.963 332.347 503.189 333.187 502.576 334.28C501.989 335.373 501.629 336.667 501.496 338.16H511.936C512.496 338.16 512.869 338.013 513.056 337.72C513.269 337.427 513.376 336.987 513.376 336.4C513.376 335.44 513.163 334.533 512.736 333.68C512.309 332.827 511.696 332.147 510.896 331.64C510.096 331.107 509.136 330.84 508.016 330.84ZM508.176 349.52C506.576 349.52 505.109 349.16 503.776 348.44C502.443 347.693 501.363 346.587 500.536 345.12C499.736 343.653 499.336 341.813 499.336 339.6C499.336 337.573 499.736 335.813 500.536 334.32C501.363 332.827 502.443 331.667 503.776 330.84C505.109 330.013 506.549 329.6 508.096 329.6C509.563 329.6 510.843 329.933 511.936 330.6C513.029 331.24 513.869 332.12 514.456 333.24C515.069 334.36 515.376 335.64 515.376 337.08C515.376 337.56 515.349 337.987 515.296 338.36C515.243 338.733 515.176 339.067 515.096 339.36L501.456 339.32C501.483 341.293 501.816 342.92 502.456 344.2C503.123 345.453 503.989 346.387 505.056 347C506.149 347.587 507.336 347.88 508.616 347.88C509.896 347.88 511.029 347.64 512.016 347.16C513.003 346.68 513.869 346.027 514.616 345.2L515.256 345.76C514.509 346.907 513.509 347.827 512.256 348.52C511.029 349.187 509.669 349.52 508.176 349.52ZM518.507 349V347.96L521.867 347.6C521.894 346.587 521.907 345.413 521.907 344.08C521.934 342.747 521.947 341.587 521.947 340.6V321.44L518.427 321.28V320.24L523.387 319.2L523.987 319.52L523.867 325.2V332.84C524.854 331.667 525.907 330.84 527.027 330.36C528.147 329.853 529.241 329.6 530.307 329.6C531.827 329.6 533.161 330.013 534.307 330.84C535.454 331.64 536.347 332.773 536.987 334.24C537.654 335.68 537.987 337.373 537.987 339.32C537.987 341.373 537.641 343.173 536.947 344.72C536.281 346.24 535.347 347.427 534.147 348.28C532.947 349.107 531.547 349.52 529.947 349.52C528.934 349.52 527.894 349.293 526.827 348.84C525.787 348.387 524.801 347.573 523.867 346.4L523.667 349.24L518.507 349ZM529.787 331.12C528.881 331.12 527.947 331.333 526.987 331.76C526.027 332.187 525.001 332.96 523.907 334.08V345.2C524.867 346.187 525.814 346.907 526.747 347.36C527.707 347.813 528.694 348.04 529.707 348.04C530.801 348.04 531.814 347.747 532.747 347.16C533.681 346.547 534.427 345.613 534.987 344.36C535.574 343.08 535.867 341.453 535.867 339.48C535.867 336.733 535.294 334.653 534.147 333.24C533.001 331.827 531.547 331.12 529.787 331.12ZM547.792 348.72C547.792 349.947 547.526 351.133 546.992 352.28C546.486 353.427 545.792 354.44 544.912 355.32C544.059 356.227 543.112 356.96 542.072 357.52L541.632 356.72C542.912 355.893 543.952 354.947 544.752 353.88C545.552 352.813 546.086 351.573 546.352 350.16L545.232 349.28C544.486 348.667 544.112 348.013 544.112 347.32C544.112 346.867 544.246 346.48 544.512 346.16C544.806 345.813 545.219 345.64 545.752 345.64C546.366 345.64 546.939 345.893 547.472 346.4C547.686 347.067 547.792 347.84 547.792 348.72ZM563.392 349V347.96L566.752 347.56C566.779 346.547 566.792 345.387 566.792 344.08C566.819 342.747 566.832 341.587 566.832 340.6V338.68C566.832 337.507 566.832 336.4 566.832 335.36C566.832 334.32 566.805 333.267 566.752 332.2L563.192 332.04V331L568.392 329.72L568.872 330.04L568.792 335V340.6C568.792 341.587 568.792 342.747 568.792 344.08C568.819 345.387 568.845 346.547 568.872 347.56L571.952 347.96V349H563.392ZM567.632 323.92C567.125 323.92 566.685 323.76 566.312 323.44C565.965 323.12 565.792 322.693 565.792 322.16C565.792 321.6 565.965 321.16 566.312 320.84C566.685 320.52 567.125 320.36 567.632 320.36C568.139 320.36 568.565 320.52 568.912 320.84C569.285 321.16 569.472 321.6 569.472 322.16C569.472 322.693 569.285 323.12 568.912 323.44C568.565 323.76 568.139 323.92 567.632 323.92ZM575.383 349V347.96L578.743 347.56C578.77 346.547 578.783 345.387 578.783 344.08C578.81 342.747 578.823 341.587 578.823 340.6V338.68C578.823 336.2 578.783 334.04 578.703 332.2L575.183 332.04V331L580.063 329.72L580.543 330.04L580.743 333.72C581.996 332.307 583.276 331.267 584.583 330.6C585.916 329.933 587.196 329.6 588.423 329.6C589.996 329.6 591.21 330.133 592.063 331.2C592.916 332.267 593.343 334.08 593.343 336.64V340.6C593.343 341.587 593.343 342.747 593.343 344.08C593.37 345.387 593.396 346.547 593.423 347.56L596.503 347.96V349H587.943V347.96L591.303 347.56C591.33 346.547 591.343 345.387 591.343 344.08C591.37 342.747 591.383 341.587 591.383 340.6V336.76C591.383 334.787 591.05 333.4 590.383 332.6C589.743 331.8 588.836 331.4 587.663 331.4C586.756 331.4 585.73 331.653 584.583 332.16C583.463 332.64 582.196 333.613 580.783 335.08V340.6C580.783 341.587 580.783 342.747 580.783 344.08C580.81 345.387 580.836 346.547 580.863 347.56L583.943 347.96V349H575.383ZM606.404 349.52C604.99 349.52 603.95 349.133 603.284 348.36C602.617 347.587 602.284 346.44 602.284 344.92C602.284 344.387 602.284 343.907 602.284 343.48C602.31 343.053 602.324 342.52 602.324 341.88V331.56H598.364V330.36L602.364 330.04L603.044 324.4H604.524L604.324 330.12H609.964V331.56H604.284V344.68C604.284 345.907 604.51 346.787 604.964 347.32C605.417 347.853 606.057 348.12 606.884 348.12C607.47 348.12 607.977 348.053 608.404 347.92C608.83 347.76 609.297 347.533 609.804 347.24L610.324 348.04C609.337 349.027 608.03 349.52 606.404 349.52ZM621.649 330.84C620.529 330.84 619.489 331.147 618.529 331.76C617.595 332.347 616.822 333.187 616.209 334.28C615.622 335.373 615.262 336.667 615.129 338.16H625.569C626.129 338.16 626.502 338.013 626.689 337.72C626.902 337.427 627.009 336.987 627.009 336.4C627.009 335.44 626.795 334.533 626.369 333.68C625.942 332.827 625.329 332.147 624.529 331.64C623.729 331.107 622.769 330.84 621.649 330.84ZM621.809 349.52C620.209 349.52 618.742 349.16 617.409 348.44C616.075 347.693 614.995 346.587 614.169 345.12C613.369 343.653 612.969 341.813 612.969 339.6C612.969 337.573 613.369 335.813 614.169 334.32C614.995 332.827 616.075 331.667 617.409 330.84C618.742 330.013 620.182 329.6 621.729 329.6C623.195 329.6 624.475 329.933 625.569 330.6C626.662 331.24 627.502 332.12 628.089 333.24C628.702 334.36 629.009 335.64 629.009 337.08C629.009 337.56 628.982 337.987 628.929 338.36C628.875 338.733 628.809 339.067 628.729 339.36L615.089 339.32C615.115 341.293 615.449 342.92 616.089 344.2C616.755 345.453 617.622 346.387 618.689 347C619.782 347.587 620.969 347.88 622.249 347.88C623.529 347.88 624.662 347.64 625.649 347.16C626.635 346.68 627.502 346.027 628.249 345.2L628.889 345.76C628.142 346.907 627.142 347.827 625.889 348.52C624.662 349.187 623.302 349.52 621.809 349.52ZM619.889 326.04C620.555 325.08 621.209 324.133 621.849 323.2C622.515 322.24 623.142 321.36 623.729 320.56C624.102 320.027 624.409 319.667 624.649 319.48C624.889 319.267 625.142 319.16 625.409 319.16C625.675 319.16 625.902 319.253 626.089 319.44C626.302 319.6 626.409 319.84 626.409 320.16C626.409 320.4 626.315 320.653 626.129 320.92C625.942 321.187 625.622 321.547 625.169 322C624.502 322.667 623.769 323.4 622.969 324.2C622.195 324.973 621.382 325.76 620.529 326.56L619.889 326.04ZM632.611 349V347.96L635.931 347.56C635.957 346.547 635.971 345.387 635.971 344.08C635.997 342.747 636.011 341.587 636.011 340.6V338.68C636.011 336.2 635.971 334.04 635.891 332.2L632.371 332.04V331L637.251 329.72L637.731 330.04L637.971 335.04C638.584 333.44 639.464 332.133 640.611 331.12C641.784 330.107 643.011 329.6 644.291 329.6C644.931 329.6 645.504 329.72 646.011 329.96C646.517 330.2 646.864 330.48 647.051 330.8C647.051 332.053 646.491 332.68 645.371 332.68C644.971 332.68 644.597 332.587 644.251 332.4C643.931 332.213 643.584 331.96 643.211 331.64L642.771 331.24C641.731 331.667 640.811 332.373 640.011 333.36C639.237 334.32 638.557 335.547 637.971 337.04V340.6C637.971 341.587 637.971 342.747 637.971 344.08C637.997 345.387 638.024 346.547 638.051 347.56L641.651 347.96V349H632.611ZM657.391 330.84C656.271 330.84 655.231 331.147 654.271 331.76C653.338 332.347 652.564 333.187 651.951 334.28C651.364 335.373 651.004 336.667 650.871 338.16H661.311C661.871 338.16 662.244 338.013 662.431 337.72C662.644 337.427 662.751 336.987 662.751 336.4C662.751 335.44 662.538 334.533 662.111 333.68C661.684 332.827 661.071 332.147 660.271 331.64C659.471 331.107 658.511 330.84 657.391 330.84ZM657.551 349.52C655.951 349.52 654.484 349.16 653.151 348.44C651.818 347.693 650.738 346.587 649.911 345.12C649.111 343.653 648.711 341.813 648.711 339.6C648.711 337.573 649.111 335.813 649.911 334.32C650.738 332.827 651.818 331.667 653.151 330.84C654.484 330.013 655.924 329.6 657.471 329.6C658.938 329.6 660.218 329.933 661.311 330.6C662.404 331.24 663.244 332.12 663.831 333.24C664.444 334.36 664.751 335.64 664.751 337.08C664.751 337.56 664.724 337.987 664.671 338.36C664.618 338.733 664.551 339.067 664.471 339.36L650.831 339.32C650.858 341.293 651.191 342.92 651.831 344.2C652.498 345.453 653.364 346.387 654.431 347C655.524 347.587 656.711 347.88 657.991 347.88C659.271 347.88 660.404 347.64 661.391 347.16C662.378 346.68 663.244 346.027 663.991 345.2L664.631 345.76C663.884 346.907 662.884 347.827 661.631 348.52C660.404 349.187 659.044 349.52 657.551 349.52ZM674.673 349.52C673.553 349.52 672.539 349.4 671.633 349.16C670.753 348.92 669.833 348.587 668.873 348.16L668.713 344H670.113L670.753 347.52C671.286 347.787 671.873 347.987 672.513 348.12C673.153 348.253 673.899 348.32 674.753 348.32C676.486 348.32 677.779 347.973 678.633 347.28C679.486 346.56 679.913 345.667 679.913 344.6C679.913 343.667 679.606 342.907 678.993 342.32C678.379 341.733 677.326 341.173 675.833 340.64L673.953 339.96C672.513 339.427 671.353 338.76 670.473 337.96C669.619 337.16 669.193 336.093 669.193 334.76C669.193 333.32 669.739 332.107 670.833 331.12C671.953 330.107 673.553 329.6 675.633 329.6C676.726 329.6 677.673 329.747 678.473 330.04C679.273 330.307 680.126 330.707 681.033 331.24L680.913 335H679.593L679.153 331.8C678.539 331.427 677.926 331.173 677.313 331.04C676.726 330.907 676.126 330.84 675.513 330.84C674.046 330.84 672.939 331.173 672.193 331.84C671.473 332.48 671.113 333.293 671.113 334.28C671.113 335.267 671.419 336.027 672.033 336.56C672.673 337.093 673.673 337.613 675.033 338.12L676.713 338.76C678.606 339.453 679.926 340.227 680.673 341.08C681.446 341.907 681.833 342.933 681.833 344.16C681.833 345.093 681.566 345.973 681.033 346.8C680.526 347.627 679.739 348.293 678.673 348.8C677.633 349.28 676.299 349.52 674.673 349.52ZM691.821 349.52C690.701 349.52 689.688 349.4 688.781 349.16C687.901 348.92 686.981 348.587 686.021 348.16L685.861 344H687.261L687.901 347.52C688.435 347.787 689.021 347.987 689.661 348.12C690.301 348.253 691.048 348.32 691.901 348.32C693.635 348.32 694.928 347.973 695.781 347.28C696.635 346.56 697.061 345.667 697.061 344.6C697.061 343.667 696.755 342.907 696.141 342.32C695.528 341.733 694.475 341.173 692.981 340.64L691.101 339.96C689.661 339.427 688.501 338.76 687.621 337.96C686.768 337.16 686.341 336.093 686.341 334.76C686.341 333.32 686.888 332.107 687.981 331.12C689.101 330.107 690.701 329.6 692.781 329.6C693.875 329.6 694.821 329.747 695.621 330.04C696.421 330.307 697.275 330.707 698.181 331.24L698.061 335H696.741L696.301 331.8C695.688 331.427 695.075 331.173 694.461 331.04C693.875 330.907 693.275 330.84 692.661 330.84C691.195 330.84 690.088 331.173 689.341 331.84C688.621 332.48 688.261 333.293 688.261 334.28C688.261 335.267 688.568 336.027 689.181 336.56C689.821 337.093 690.821 337.613 692.181 338.12L693.861 338.76C695.755 339.453 697.075 340.227 697.821 341.08C698.595 341.907 698.981 342.933 698.981 344.16C698.981 345.093 698.715 345.973 698.181 346.8C697.675 347.627 696.888 348.293 695.821 348.8C694.781 349.28 693.448 349.52 691.821 349.52ZM711.61 330.84C710.49 330.84 709.45 331.147 708.49 331.76C707.556 332.347 706.783 333.187 706.17 334.28C705.583 335.373 705.223 336.667 705.09 338.16H715.53C716.09 338.16 716.463 338.013 716.65 337.72C716.863 337.427 716.97 336.987 716.97 336.4C716.97 335.44 716.756 334.533 716.33 333.68C715.903 332.827 715.29 332.147 714.49 331.64C713.69 331.107 712.73 330.84 711.61 330.84ZM711.77 349.52C710.17 349.52 708.703 349.16 707.37 348.44C706.036 347.693 704.956 346.587 704.13 345.12C703.33 343.653 702.93 341.813 702.93 339.6C702.93 337.573 703.33 335.813 704.13 334.32C704.956 332.827 706.036 331.667 707.37 330.84C708.703 330.013 710.143 329.6 711.69 329.6C713.156 329.6 714.436 329.933 715.53 330.6C716.623 331.24 717.463 332.12 718.05 333.24C718.663 334.36 718.97 335.64 718.97 337.08C718.97 337.56 718.943 337.987 718.89 338.36C718.836 338.733 718.77 339.067 718.69 339.36L705.05 339.32C705.076 341.293 705.41 342.92 706.05 344.2C706.716 345.453 707.583 346.387 708.65 347C709.743 347.587 710.93 347.88 712.21 347.88C713.49 347.88 714.623 347.64 715.61 347.16C716.596 346.68 717.463 346.027 718.21 345.2L718.85 345.76C718.103 346.907 717.103 347.827 715.85 348.52C714.623 349.187 713.263 349.52 711.77 349.52ZM709.85 326.04C710.516 325.08 711.17 324.133 711.81 323.2C712.476 322.24 713.103 321.36 713.69 320.56C714.063 320.027 714.37 319.667 714.61 319.48C714.85 319.267 715.103 319.16 715.37 319.16C715.636 319.16 715.863 319.253 716.05 319.44C716.263 319.6 716.37 319.84 716.37 320.16C716.37 320.4 716.276 320.653 716.09 320.92C715.903 321.187 715.583 321.547 715.13 322C714.463 322.667 713.73 323.4 712.93 324.2C712.156 324.973 711.343 325.76 710.49 326.56L709.85 326.04ZM731.532 330.84C730.412 330.84 729.372 331.147 728.412 331.76C727.478 332.347 726.705 333.187 726.092 334.28C725.505 335.373 725.145 336.667 725.012 338.16H735.452C736.012 338.16 736.385 338.013 736.572 337.72C736.785 337.427 736.892 336.987 736.892 336.4C736.892 335.44 736.678 334.533 736.252 333.68C735.825 332.827 735.212 332.147 734.412 331.64C733.612 331.107 732.652 330.84 731.532 330.84ZM731.692 349.52C730.092 349.52 728.625 349.16 727.292 348.44C725.958 347.693 724.878 346.587 724.052 345.12C723.252 343.653 722.852 341.813 722.852 339.6C722.852 337.573 723.252 335.813 724.052 334.32C724.878 332.827 725.958 331.667 727.292 330.84C728.625 330.013 730.065 329.6 731.612 329.6C733.078 329.6 734.358 329.933 735.452 330.6C736.545 331.24 737.385 332.12 737.972 333.24C738.585 334.36 738.892 335.64 738.892 337.08C738.892 337.56 738.865 337.987 738.812 338.36C738.758 338.733 738.692 339.067 738.612 339.36L724.972 339.32C724.998 341.293 725.332 342.92 725.972 344.2C726.638 345.453 727.505 346.387 728.572 347C729.665 347.587 730.852 347.88 732.132 347.88C733.412 347.88 734.545 347.64 735.532 347.16C736.518 346.68 737.385 346.027 738.132 345.2L738.772 345.76C738.025 346.907 737.025 347.827 735.772 348.52C734.545 349.187 733.185 349.52 731.692 349.52ZM109.84 407.48C108.933 407.48 108.227 407.16 107.72 406.52C107.213 405.88 106.893 404.987 106.76 403.84C105.587 405.067 104.52 405.987 103.56 406.6C102.6 407.213 101.48 407.52 100.2 407.52C98.76 407.52 97.5467 407.107 96.56 406.28C95.6 405.453 95.12 404.267 95.12 402.72C95.12 401.387 95.5867 400.253 96.52 399.32C97.4533 398.36 99.0533 397.493 101.32 396.72C102.173 396.427 103.067 396.16 104 395.92C104.933 395.653 105.84 395.427 106.72 395.24V394.12C106.72 392.707 106.56 391.627 106.24 390.88C105.92 390.107 105.427 389.573 104.76 389.28C104.12 388.987 103.307 388.84 102.32 388.84C101.76 388.84 101.2 388.893 100.64 389C100.107 389.107 99.56 389.307 99 389.6L98.24 392.16C98 392.987 97.5333 393.4 96.84 393.4C96.1467 393.4 95.7333 393.027 95.6 392.28C96 390.787 96.8267 389.64 98.08 388.84C99.36 388.013 100.907 387.6 102.72 387.6C104.693 387.6 106.173 388.093 107.16 389.08C108.173 390.04 108.68 391.627 108.68 393.84V402.68C108.68 403.987 108.827 404.88 109.12 405.36C109.44 405.84 109.893 406.08 110.48 406.08C110.987 406.08 111.533 405.827 112.12 405.32L112.68 406C111.933 406.987 110.987 407.48 109.84 407.48ZM97.2 402.32C97.2 403.467 97.5333 404.347 98.2 404.96C98.8933 405.547 99.8 405.84 100.92 405.84C101.8 405.84 102.653 405.613 103.48 405.16C104.333 404.68 105.413 403.84 106.72 402.64V396.28C105.867 396.467 104.987 396.707 104.08 397C103.173 397.267 102.373 397.533 101.68 397.8C99.9733 398.44 98.8 399.147 98.16 399.92C97.52 400.667 97.2 401.467 97.2 402.32ZM105.16 384.04L104.48 384.56C103.653 383.733 102.84 382.933 102.04 382.16C101.267 381.387 100.533 380.667 99.84 380C99.3867 379.547 99.0667 379.187 98.88 378.92C98.72 378.653 98.64 378.4 98.64 378.16C98.64 377.84 98.7333 377.6 98.92 377.44C99.1333 377.253 99.3733 377.16 99.64 377.16C99.9067 377.16 100.16 377.267 100.4 377.48C100.64 377.667 100.947 378.027 101.32 378.56C101.907 379.36 102.52 380.24 103.16 381.2C103.827 382.133 104.493 383.08 105.16 384.04ZM124.242 407V405.96L127.922 405.56C127.949 404.493 127.962 403.333 127.962 402.08C127.989 400.8 128.002 399.64 128.002 398.6V379.44L124.482 379.28V378.24L129.522 377.2L130.082 377.52L129.962 383.2V398.6C129.962 399.64 129.962 400.8 129.962 402.08C129.989 403.333 130.015 404.493 130.042 405.56L133.642 405.96V407H124.242ZM151.598 407.48C150.691 407.48 149.984 407.16 149.478 406.52C148.971 405.88 148.651 404.987 148.518 403.84C147.344 405.067 146.278 405.987 145.318 406.6C144.358 407.213 143.238 407.52 141.958 407.52C140.518 407.52 139.304 407.107 138.318 406.28C137.358 405.453 136.878 404.267 136.878 402.72C136.878 401.387 137.344 400.253 138.278 399.32C139.211 398.36 140.811 397.493 143.078 396.72C143.931 396.427 144.824 396.16 145.758 395.92C146.691 395.653 147.598 395.427 148.478 395.24V394.12C148.478 392.707 148.318 391.627 147.998 390.88C147.678 390.107 147.184 389.573 146.518 389.28C145.878 388.987 145.064 388.84 144.078 388.84C143.518 388.84 142.958 388.893 142.398 389C141.864 389.107 141.318 389.307 140.758 389.6L139.998 392.16C139.758 392.987 139.291 393.4 138.598 393.4C137.904 393.4 137.491 393.027 137.358 392.28C137.758 390.787 138.584 389.64 139.838 388.84C141.118 388.013 142.664 387.6 144.478 387.6C146.451 387.6 147.931 388.093 148.918 389.08C149.931 390.04 150.438 391.627 150.438 393.84V402.68C150.438 403.987 150.584 404.88 150.878 405.36C151.198 405.84 151.651 406.08 152.238 406.08C152.744 406.08 153.291 405.827 153.878 405.32L154.438 406C153.691 406.987 152.744 407.48 151.598 407.48ZM138.958 402.32C138.958 403.467 139.291 404.347 139.958 404.96C140.651 405.547 141.558 405.84 142.678 405.84C143.558 405.84 144.411 405.613 145.238 405.16C146.091 404.68 147.171 403.84 148.478 402.64V396.28C147.624 396.467 146.744 396.707 145.838 397C144.931 397.267 144.131 397.533 143.438 397.8C141.731 398.44 140.558 399.147 139.918 399.92C139.278 400.667 138.958 401.467 138.958 402.32ZM166.04 407V405.96L169.72 405.56C169.746 404.387 169.76 403.227 169.76 402.08C169.786 400.907 169.8 399.747 169.8 398.6V389.56H166.04V388.36L169.8 388.04C169.906 385.747 170.186 383.893 170.64 382.48C171.093 381.067 171.84 379.827 172.88 378.76C173.573 378.067 174.32 377.573 175.12 377.28C175.946 376.96 176.76 376.8 177.56 376.8C178.413 376.8 179.146 376.947 179.76 377.24C180.373 377.533 180.76 377.947 180.92 378.48C180.893 378.827 180.746 379.12 180.48 379.36C180.213 379.573 179.84 379.68 179.36 379.68C178.96 379.68 178.56 379.587 178.16 379.4C177.786 379.187 177.333 378.893 176.8 378.52L176 377.92C175.386 378.16 174.76 378.573 174.12 379.16C173.293 379.987 172.693 381.08 172.32 382.44C171.946 383.773 171.773 385.667 171.8 388.12H177.92V389.56H171.8V398.6C171.8 399.747 171.8 400.907 171.8 402.08C171.826 403.227 171.853 404.387 171.88 405.56L175.88 405.96V407H166.04ZM188.957 407.52C187.491 407.52 186.077 407.173 184.717 406.48C183.384 405.76 182.277 404.667 181.397 403.2C180.544 401.733 180.117 399.88 180.117 397.64C180.117 395.373 180.544 393.507 181.397 392.04C182.277 390.547 183.384 389.44 184.717 388.72C186.077 387.973 187.491 387.6 188.957 387.6C190.424 387.6 191.824 387.973 193.157 388.72C194.517 389.44 195.637 390.547 196.517 392.04C197.397 393.507 197.837 395.373 197.837 397.64C197.837 399.88 197.397 401.733 196.517 403.2C195.637 404.667 194.517 405.76 193.157 406.48C191.824 407.173 190.424 407.52 188.957 407.52ZM188.957 406.32C190.984 406.32 192.597 405.56 193.797 404.04C194.997 402.52 195.597 400.387 195.597 397.64C195.597 394.867 194.997 392.707 193.797 391.16C192.597 389.613 190.984 388.84 188.957 388.84C186.931 388.84 185.317 389.613 184.117 391.16C182.917 392.707 182.317 394.867 182.317 397.64C182.317 400.387 182.917 402.52 184.117 404.04C185.317 405.56 186.931 406.32 188.957 406.32ZM201.517 407V405.96L204.877 405.56C204.904 404.547 204.917 403.387 204.917 402.08C204.944 400.747 204.957 399.587 204.957 398.6V396.68C204.957 395.507 204.957 394.4 204.957 393.36C204.957 392.32 204.93 391.267 204.877 390.2L201.317 390.04V389L206.517 387.72L206.997 388.04L206.917 393V398.6C206.917 399.587 206.917 400.747 206.917 402.08C206.944 403.387 206.97 404.547 206.997 405.56L210.077 405.96V407H201.517ZM205.757 381.92C205.25 381.92 204.81 381.76 204.437 381.44C204.09 381.12 203.917 380.693 203.917 380.16C203.917 379.6 204.09 379.16 204.437 378.84C204.81 378.52 205.25 378.36 205.757 378.36C206.264 378.36 206.69 378.52 207.037 378.84C207.41 379.16 207.597 379.6 207.597 380.16C207.597 380.693 207.41 381.12 207.037 381.44C206.69 381.76 206.264 381.92 205.757 381.92ZM219.868 407.52C218.748 407.52 217.735 407.4 216.828 407.16C215.948 406.92 215.028 406.587 214.068 406.16L213.908 402H215.308L215.948 405.52C216.481 405.787 217.068 405.987 217.708 406.12C218.348 406.253 219.095 406.32 219.948 406.32C221.681 406.32 222.975 405.973 223.828 405.28C224.681 404.56 225.108 403.667 225.108 402.6C225.108 401.667 224.801 400.907 224.188 400.32C223.575 399.733 222.521 399.173 221.028 398.64L219.148 397.96C217.708 397.427 216.548 396.76 215.668 395.96C214.815 395.16 214.388 394.093 214.388 392.76C214.388 391.32 214.935 390.107 216.028 389.12C217.148 388.107 218.748 387.6 220.828 387.6C221.921 387.6 222.868 387.747 223.668 388.04C224.468 388.307 225.321 388.707 226.228 389.24L226.108 393H224.788L224.348 389.8C223.735 389.427 223.121 389.173 222.508 389.04C221.921 388.907 221.321 388.84 220.708 388.84C219.241 388.84 218.135 389.173 217.388 389.84C216.668 390.48 216.308 391.293 216.308 392.28C216.308 393.267 216.615 394.027 217.228 394.56C217.868 395.093 218.868 395.613 220.228 396.12L221.908 396.76C223.801 397.453 225.121 398.227 225.868 399.08C226.641 399.907 227.028 400.933 227.028 402.16C227.028 403.093 226.761 403.973 226.228 404.8C225.721 405.627 224.935 406.293 223.868 406.8C222.828 407.28 221.495 407.52 219.868 407.52ZM251.584 389.12C250.677 389.12 249.744 389.333 248.784 389.76C247.851 390.16 246.851 390.893 245.784 391.96V403.44C246.744 404.4 247.664 405.08 248.544 405.48C249.451 405.853 250.411 406.04 251.424 406.04C252.544 406.04 253.571 405.747 254.504 405.16C255.437 404.573 256.184 403.653 256.744 402.4C257.331 401.147 257.624 399.52 257.624 397.52C257.624 394.773 257.051 392.693 255.904 391.28C254.784 389.84 253.344 389.12 251.584 389.12ZM251.704 407.52C250.717 407.52 249.704 407.333 248.664 406.96C247.624 406.56 246.637 405.813 245.704 404.72V408.28C245.704 409.32 245.704 410.467 245.704 411.72C245.731 413 245.757 414.187 245.784 415.28L249.704 415.68V416.72H240.264V415.68L243.704 415.28C243.731 414.213 243.744 413.04 243.744 411.76C243.771 410.507 243.784 409.36 243.784 408.32V396.76C243.784 394.227 243.744 392.04 243.664 390.2L240.184 390.04V389L245.064 387.72L245.544 388.04L245.664 390.84C246.651 389.667 247.704 388.84 248.824 388.36C249.944 387.853 251.037 387.6 252.104 387.6C253.624 387.6 254.957 388.013 256.104 388.84C257.251 389.64 258.144 390.773 258.784 392.24C259.451 393.707 259.784 395.413 259.784 397.36C259.784 399.413 259.437 401.213 258.744 402.76C258.077 404.28 257.131 405.453 255.904 406.28C254.704 407.107 253.304 407.52 251.704 407.52ZM278.59 407.48C277.683 407.48 276.977 407.16 276.47 406.52C275.963 405.88 275.643 404.987 275.51 403.84C274.337 405.067 273.27 405.987 272.31 406.6C271.35 407.213 270.23 407.52 268.95 407.52C267.51 407.52 266.297 407.107 265.31 406.28C264.35 405.453 263.87 404.267 263.87 402.72C263.87 401.387 264.337 400.253 265.27 399.32C266.203 398.36 267.803 397.493 270.07 396.72C270.923 396.427 271.817 396.16 272.75 395.92C273.683 395.653 274.59 395.427 275.47 395.24V394.12C275.47 392.707 275.31 391.627 274.99 390.88C274.67 390.107 274.177 389.573 273.51 389.28C272.87 388.987 272.057 388.84 271.07 388.84C270.51 388.84 269.95 388.893 269.39 389C268.857 389.107 268.31 389.307 267.75 389.6L266.99 392.16C266.75 392.987 266.283 393.4 265.59 393.4C264.897 393.4 264.483 393.027 264.35 392.28C264.75 390.787 265.577 389.64 266.83 388.84C268.11 388.013 269.657 387.6 271.47 387.6C273.443 387.6 274.923 388.093 275.91 389.08C276.923 390.04 277.43 391.627 277.43 393.84V402.68C277.43 403.987 277.577 404.88 277.87 405.36C278.19 405.84 278.643 406.08 279.23 406.08C279.737 406.08 280.283 405.827 280.87 405.32L281.43 406C280.683 406.987 279.737 407.48 278.59 407.48ZM265.95 402.32C265.95 403.467 266.283 404.347 266.95 404.96C267.643 405.547 268.55 405.84 269.67 405.84C270.55 405.84 271.403 405.613 272.23 405.16C273.083 404.68 274.163 403.84 275.47 402.64V396.28C274.617 396.467 273.737 396.707 272.83 397C271.923 397.267 271.123 397.533 270.43 397.8C268.723 398.44 267.55 399.147 266.91 399.92C266.27 400.667 265.95 401.467 265.95 402.32ZM283.704 407V405.96L287.024 405.56C287.051 404.547 287.064 403.387 287.064 402.08C287.091 400.747 287.104 399.587 287.104 398.6V396.68C287.104 394.2 287.064 392.04 286.984 390.2L283.464 390.04V389L288.344 387.72L288.824 388.04L289.064 393.04C289.678 391.44 290.558 390.133 291.704 389.12C292.878 388.107 294.104 387.6 295.384 387.6C296.024 387.6 296.598 387.72 297.104 387.96C297.611 388.2 297.958 388.48 298.144 388.8C298.144 390.053 297.584 390.68 296.464 390.68C296.064 390.68 295.691 390.587 295.344 390.4C295.024 390.213 294.678 389.96 294.304 389.64L293.864 389.24C292.824 389.667 291.904 390.373 291.104 391.36C290.331 392.32 289.651 393.547 289.064 395.04V398.6C289.064 399.587 289.064 400.747 289.064 402.08C289.091 403.387 289.118 404.547 289.144 405.56L292.744 405.96V407H283.704ZM309.437 407V405.96L313.117 405.56C313.144 404.493 313.157 403.333 313.157 402.08C313.184 400.8 313.197 399.64 313.197 398.6V379.44L309.677 379.28V378.24L314.717 377.2L315.277 377.52L315.157 383.2V398.6C315.157 399.64 315.157 400.8 315.157 402.08C315.184 403.333 315.211 404.493 315.237 405.56L318.837 405.96V407H309.437ZM330.789 388.84C329.669 388.84 328.629 389.147 327.669 389.76C326.736 390.347 325.963 391.187 325.349 392.28C324.763 393.373 324.403 394.667 324.269 396.16H334.709C335.269 396.16 335.643 396.013 335.829 395.72C336.043 395.427 336.149 394.987 336.149 394.4C336.149 393.44 335.936 392.533 335.509 391.68C335.083 390.827 334.469 390.147 333.669 389.64C332.869 389.107 331.909 388.84 330.789 388.84ZM330.949 407.52C329.349 407.52 327.883 407.16 326.549 406.44C325.216 405.693 324.136 404.587 323.309 403.12C322.509 401.653 322.109 399.813 322.109 397.6C322.109 395.573 322.509 393.813 323.309 392.32C324.136 390.827 325.216 389.667 326.549 388.84C327.883 388.013 329.323 387.6 330.869 387.6C332.336 387.6 333.616 387.933 334.709 388.6C335.803 389.24 336.643 390.12 337.229 391.24C337.843 392.36 338.149 393.64 338.149 395.08C338.149 395.56 338.123 395.987 338.069 396.36C338.016 396.733 337.949 397.067 337.869 397.36L324.229 397.32C324.256 399.293 324.589 400.92 325.229 402.2C325.896 403.453 326.763 404.387 327.829 405C328.923 405.587 330.109 405.88 331.389 405.88C332.669 405.88 333.803 405.64 334.789 405.16C335.776 404.68 336.643 404.027 337.389 403.2L338.029 403.76C337.283 404.907 336.283 405.827 335.029 406.52C333.803 407.187 332.443 407.52 330.949 407.52ZM351.039 407V405.36L353.719 404.84C353.745 403.8 353.759 402.76 353.759 401.72C353.785 400.68 353.799 399.64 353.799 398.6V390.28H350.839V388.2L353.919 387.8C354.132 385.827 354.452 384.24 354.879 383.04C355.332 381.813 356.025 380.733 356.959 379.8C357.865 378.893 358.852 378.253 359.919 377.88C361.012 377.48 362.065 377.28 363.079 377.28C364.119 377.28 365.039 377.467 365.839 377.84C366.665 378.213 367.185 378.867 367.399 379.8C367.372 380.413 367.119 380.933 366.639 381.36C366.185 381.787 365.559 382 364.759 382C363.612 382 362.532 381.333 361.519 380L360.799 379.28C360.719 379.333 360.625 379.413 360.519 379.52C359.799 380.24 359.279 381.253 358.959 382.56C358.639 383.867 358.505 385.627 358.559 387.84H363.479V390.28H358.639V398.6C358.639 399.613 358.639 400.64 358.639 401.68C358.665 402.693 358.692 403.72 358.719 404.76L362.079 405.36V407H351.039ZM365.455 407V405.36L368.015 404.88C368.041 403.867 368.055 402.787 368.055 401.64C368.055 400.467 368.055 399.453 368.055 398.6V396.48C368.055 395.387 368.041 394.52 368.015 393.88C368.015 393.213 367.988 392.48 367.935 391.68L365.135 391.32V389.8L371.815 387.28L372.455 387.68L372.855 392.4C373.468 390.747 374.295 389.48 375.335 388.6C376.375 387.72 377.415 387.28 378.455 387.28C379.175 387.28 379.828 387.467 380.415 387.84C381.028 388.213 381.428 388.747 381.615 389.44C381.588 390.427 381.348 391.2 380.895 391.76C380.441 392.293 379.815 392.56 379.015 392.56C378.055 392.56 377.148 392.08 376.295 391.12L375.935 390.72C374.521 391.893 373.508 393.547 372.895 395.68V398.6C372.895 399.427 372.895 400.413 372.895 401.56C372.895 402.68 372.908 403.733 372.935 404.72L376.215 405.36V407H365.455ZM392.362 407.56C390.549 407.56 388.909 407.16 387.442 406.36C386.002 405.56 384.856 404.4 384.002 402.88C383.149 401.36 382.722 399.547 382.722 397.44C382.722 395.307 383.162 393.48 384.042 391.96C384.949 390.44 386.136 389.28 387.602 388.48C389.069 387.68 390.656 387.28 392.362 387.28C394.069 387.28 395.656 387.68 397.122 388.48C398.589 389.28 399.776 390.44 400.682 391.96C401.589 393.453 402.042 395.28 402.042 397.44C402.042 399.573 401.602 401.4 400.722 402.92C399.869 404.413 398.709 405.56 397.242 406.36C395.802 407.16 394.176 407.56 392.362 407.56ZM392.362 405.6C393.802 405.6 394.896 404.933 395.642 403.6C396.416 402.267 396.802 400.227 396.802 397.48C396.802 391.987 395.322 389.24 392.362 389.24C389.429 389.24 387.962 391.987 387.962 397.48C387.962 400.227 388.336 402.267 389.082 403.6C389.829 404.933 390.922 405.6 392.362 405.6ZM404.868 407V405.36L407.468 404.84C407.494 403.853 407.508 402.787 407.508 401.64C407.508 400.467 407.508 399.453 407.508 398.6V396.48C407.508 395.387 407.494 394.52 407.468 393.88C407.468 393.213 407.441 392.48 407.388 391.68L404.588 391.32V389.8L411.268 387.28L411.908 387.68L412.188 390.76C414.241 388.44 416.508 387.28 418.988 387.28C420.721 387.28 422.054 387.853 422.988 389C423.948 390.147 424.428 391.96 424.428 394.44V398.6C424.428 399.507 424.428 400.533 424.428 401.68C424.428 402.827 424.441 403.893 424.468 404.88L426.908 405.36V407H417.028V405.36L419.588 404.84C419.614 403.853 419.628 402.8 419.628 401.68C419.628 400.533 419.628 399.507 419.628 398.6V394.8C419.628 393.227 419.414 392.147 418.988 391.56C418.561 390.947 417.841 390.64 416.828 390.64C415.414 390.64 413.921 391.293 412.348 392.6V398.6C412.348 399.48 412.348 400.493 412.348 401.64C412.348 402.787 412.361 403.867 412.388 404.88L414.748 405.36V407H404.868ZM436.206 407.56C434.606 407.56 433.352 407.16 432.446 406.36C431.539 405.56 431.086 404.28 431.086 402.52C431.086 401.907 431.086 401.333 431.086 400.8C431.112 400.24 431.126 399.573 431.126 398.8V390.28H428.166V388.2L431.406 387.8L432.926 382.32H436.166L436.006 387.84H440.806V390.28H435.966V402.08C435.966 403.067 436.152 403.787 436.526 404.24C436.926 404.693 437.446 404.92 438.086 404.92C438.806 404.92 439.619 404.587 440.526 403.92L441.486 404.92C440.979 405.747 440.286 406.4 439.406 406.88C438.526 407.333 437.459 407.56 436.206 407.56ZM442.569 398.44V395.36H452.369V398.44H442.569ZM465.131 389.2C464.491 389.2 463.851 389.413 463.211 389.84C462.598 390.24 462.064 390.907 461.611 391.84C461.184 392.773 460.918 394.04 460.811 395.64H466.291C467.251 395.64 467.891 395.44 468.211 395.04C468.531 394.64 468.691 394.08 468.691 393.36C468.691 392.133 468.344 391.133 467.651 390.36C466.958 389.587 466.118 389.2 465.131 389.2ZM465.131 407.56C463.264 407.56 461.624 407.16 460.211 406.36C458.798 405.56 457.691 404.413 456.891 402.92C456.091 401.4 455.691 399.6 455.691 397.52C455.691 395.387 456.144 393.56 457.051 392.04C457.984 390.493 459.184 389.32 460.651 388.52C462.144 387.693 463.731 387.28 465.411 387.28C466.984 387.28 468.358 387.613 469.531 388.28C470.704 388.947 471.611 389.88 472.251 391.08C472.918 392.28 473.251 393.693 473.251 395.32C473.251 396.173 473.171 396.907 473.011 397.52H460.771C460.878 399.813 461.478 401.533 462.571 402.68C463.691 403.827 465.091 404.4 466.771 404.4C467.944 404.4 468.931 404.173 469.731 403.72C470.558 403.24 471.304 402.627 471.971 401.88L473.131 402.92C472.358 404.387 471.291 405.533 469.931 406.36C468.598 407.16 466.998 407.56 465.131 407.56ZM476.157 407V405.36L478.757 404.84C478.784 403.853 478.797 402.787 478.797 401.64C478.797 400.467 478.797 399.453 478.797 398.6V396.48C478.797 395.387 478.784 394.52 478.757 393.88C478.757 393.213 478.73 392.48 478.677 391.68L475.877 391.32V389.8L482.557 387.28L483.197 387.68L483.477 390.76C485.53 388.44 487.797 387.28 490.277 387.28C492.01 387.28 493.344 387.853 494.277 389C495.237 390.147 495.717 391.96 495.717 394.44V398.6C495.717 399.507 495.717 400.533 495.717 401.68C495.717 402.827 495.73 403.893 495.757 404.88L498.197 405.36V407H488.317V405.36L490.877 404.84C490.904 403.853 490.917 402.8 490.917 401.68C490.917 400.533 490.917 399.507 490.917 398.6V394.8C490.917 393.227 490.704 392.147 490.277 391.56C489.85 390.947 489.13 390.64 488.117 390.64C486.704 390.64 485.21 391.293 483.637 392.6V398.6C483.637 399.48 483.637 400.493 483.637 401.64C483.637 402.787 483.65 403.867 483.677 404.88L486.037 405.36V407H476.157ZM505.85 397.52C505.85 399.947 506.303 401.76 507.21 402.96C508.143 404.133 509.317 404.72 510.73 404.72C511.423 404.72 512.05 404.587 512.61 404.32C513.197 404.027 513.743 403.613 514.25 403.08V391.6C513.077 390.587 511.917 390.08 510.77 390.08C509.437 390.08 508.277 390.68 507.29 391.88C506.33 393.08 505.85 394.96 505.85 397.52ZM514.73 407.44L514.41 404.92C513.663 405.773 512.837 406.427 511.93 406.88C511.023 407.333 509.983 407.56 508.81 407.56C507.237 407.56 505.837 407.16 504.61 406.36C503.41 405.56 502.463 404.413 501.77 402.92C501.077 401.427 500.73 399.653 500.73 397.6C500.73 395.493 501.117 393.667 501.89 392.12C502.69 390.573 503.743 389.387 505.05 388.56C506.383 387.707 507.837 387.28 509.41 387.28C510.423 387.28 511.33 387.467 512.13 387.84C512.957 388.213 513.73 388.827 514.45 389.68V381.44L511.33 381.04V379.48L518.65 377.68L519.25 378.04L519.09 383.68V404.92L521.69 405.36V407L514.73 407.44ZM542.821 388.84C541.701 388.84 540.661 389.147 539.701 389.76C538.767 390.347 537.994 391.187 537.381 392.28C536.794 393.373 536.434 394.667 536.301 396.16H546.741C547.301 396.16 547.674 396.013 547.861 395.72C548.074 395.427 548.181 394.987 548.181 394.4C548.181 393.44 547.967 392.533 547.541 391.68C547.114 390.827 546.501 390.147 545.701 389.64C544.901 389.107 543.941 388.84 542.821 388.84ZM542.981 407.52C541.381 407.52 539.914 407.16 538.581 406.44C537.247 405.693 536.167 404.587 535.341 403.12C534.541 401.653 534.141 399.813 534.141 397.6C534.141 395.573 534.541 393.813 535.341 392.32C536.167 390.827 537.247 389.667 538.581 388.84C539.914 388.013 541.354 387.6 542.901 387.6C544.367 387.6 545.647 387.933 546.741 388.6C547.834 389.24 548.674 390.12 549.261 391.24C549.874 392.36 550.181 393.64 550.181 395.08C550.181 395.56 550.154 395.987 550.101 396.36C550.047 396.733 549.981 397.067 549.901 397.36L536.261 397.32C536.287 399.293 536.621 400.92 537.261 402.2C537.927 403.453 538.794 404.387 539.861 405C540.954 405.587 542.141 405.88 543.421 405.88C544.701 405.88 545.834 405.64 546.821 405.16C547.807 404.68 548.674 404.027 549.421 403.2L550.061 403.76C549.314 404.907 548.314 405.827 547.061 406.52C545.834 407.187 544.474 407.52 542.981 407.52ZM560.623 407.52C559.209 407.52 558.169 407.133 557.503 406.36C556.836 405.587 556.503 404.44 556.503 402.92C556.503 402.387 556.503 401.907 556.503 401.48C556.529 401.053 556.543 400.52 556.543 399.88V389.56H552.583V388.36L556.583 388.04L557.263 382.4H558.743L558.543 388.12H564.183V389.56H558.503V402.68C558.503 403.907 558.729 404.787 559.183 405.32C559.636 405.853 560.276 406.12 561.103 406.12C561.689 406.12 562.196 406.053 562.622 405.92C563.049 405.76 563.516 405.533 564.023 405.24L564.543 406.04C563.556 407.027 562.249 407.52 560.623 407.52ZM576.195 407V405.96L579.875 405.56C579.902 404.493 579.915 403.333 579.915 402.08C579.942 400.8 579.955 399.64 579.955 398.6V379.44L576.435 379.28V378.24L581.475 377.2L582.035 377.52L581.915 383.2V398.6C581.915 399.64 581.915 400.8 581.915 402.08C581.942 403.333 581.968 404.493 581.995 405.56L585.595 405.96V407H576.195ZM597.547 388.84C596.427 388.84 595.387 389.147 594.427 389.76C593.494 390.347 592.721 391.187 592.107 392.28C591.521 393.373 591.161 394.667 591.027 396.16H601.467C602.027 396.16 602.401 396.013 602.587 395.72C602.801 395.427 602.907 394.987 602.907 394.4C602.907 393.44 602.694 392.533 602.267 391.68C601.841 390.827 601.227 390.147 600.427 389.64C599.627 389.107 598.667 388.84 597.547 388.84ZM597.707 407.52C596.107 407.52 594.641 407.16 593.307 406.44C591.974 405.693 590.894 404.587 590.067 403.12C589.267 401.653 588.867 399.813 588.867 397.6C588.867 395.573 589.267 393.813 590.067 392.32C590.894 390.827 591.974 389.667 593.307 388.84C594.641 388.013 596.081 387.6 597.627 387.6C599.094 387.6 600.374 387.933 601.467 388.6C602.561 389.24 603.401 390.12 603.987 391.24C604.601 392.36 604.907 393.64 604.907 395.08C604.907 395.56 604.881 395.987 604.827 396.36C604.774 396.733 604.707 397.067 604.627 397.36L590.987 397.32C591.014 399.293 591.347 400.92 591.987 402.2C592.654 403.453 593.521 404.387 594.587 405C595.681 405.587 596.867 405.88 598.147 405.88C599.427 405.88 600.561 405.64 601.547 405.16C602.534 404.68 603.401 404.027 604.147 403.2L604.787 403.76C604.041 404.907 603.041 405.827 601.787 406.52C600.561 407.187 599.201 407.52 597.707 407.52ZM617.637 407V405.36L620.237 404.88C620.263 403.893 620.277 402.827 620.277 401.68C620.303 400.507 620.317 399.48 620.317 398.6V381.4L617.397 381.04V379.48L624.557 377.68L625.157 378.04L624.997 383.68V390.12C626.783 388.227 628.77 387.28 630.957 387.28C632.397 387.28 633.703 387.667 634.877 388.44C636.05 389.213 636.97 390.347 637.637 391.84C638.33 393.307 638.677 395.107 638.677 397.24C638.677 399.347 638.29 401.173 637.517 402.72C636.77 404.267 635.77 405.467 634.517 406.32C633.263 407.147 631.863 407.56 630.317 407.56C629.277 407.56 628.303 407.36 627.397 406.96C626.517 406.56 625.69 405.893 624.917 404.96L624.397 407.48L617.637 407ZM629.037 390.12C628.423 390.12 627.783 390.28 627.117 390.6C626.477 390.92 625.81 391.373 625.117 391.96V403.04C626.343 404.187 627.597 404.76 628.877 404.76C630.183 404.76 631.29 404.16 632.197 402.96C633.103 401.76 633.557 399.933 633.557 397.48C633.557 395 633.13 393.16 632.277 391.96C631.45 390.733 630.37 390.12 629.037 390.12ZM656.631 407.48C655.565 407.48 654.698 407.213 654.031 406.68C653.365 406.147 652.911 405.413 652.671 404.48C651.685 405.493 650.791 406.267 649.991 406.8C649.191 407.307 648.151 407.56 646.871 407.56C645.378 407.56 644.111 407.133 643.071 406.28C642.058 405.4 641.551 404.147 641.551 402.52C641.551 401.667 641.751 400.88 642.151 400.16C642.551 399.413 643.258 398.72 644.271 398.08C645.311 397.44 646.791 396.813 648.711 396.2C649.245 396.013 649.845 395.827 650.511 395.64C651.178 395.453 651.858 395.267 652.551 395.08V393.96C652.551 392.093 652.285 390.84 651.751 390.2C651.245 389.533 650.338 389.2 649.031 389.2C648.791 389.2 648.525 389.213 648.231 389.24C647.965 389.267 647.685 389.307 647.391 389.36L646.911 391.56C646.805 392.52 646.525 393.227 646.071 393.68C645.618 394.133 645.058 394.36 644.391 394.36C643.111 394.36 642.365 393.76 642.151 392.56C642.391 390.96 643.245 389.68 644.711 388.72C646.205 387.76 648.165 387.28 650.591 387.28C652.911 387.28 654.605 387.84 655.671 388.96C656.738 390.053 657.271 391.907 657.271 394.52V403.24C657.271 404.44 657.658 405.04 658.431 405.04C658.938 405.04 659.405 404.747 659.831 404.16L660.751 404.96C660.271 405.867 659.698 406.52 659.031 406.92C658.391 407.293 657.591 407.48 656.631 407.48ZM646.231 401.68C646.231 402.72 646.498 403.48 647.031 403.96C647.591 404.413 648.271 404.64 649.071 404.64C649.525 404.64 649.978 404.533 650.431 404.32C650.885 404.107 651.591 403.667 652.551 403V396.68C651.991 396.867 651.458 397.04 650.951 397.2C650.471 397.36 650.058 397.507 649.711 397.64C648.378 398.173 647.458 398.787 646.951 399.48C646.471 400.173 646.231 400.907 646.231 401.68ZM671.693 407.56C669.879 407.56 668.253 407.173 666.813 406.4C665.373 405.6 664.239 404.453 663.413 402.96C662.613 401.44 662.213 399.613 662.213 397.48C662.213 395.32 662.666 393.48 663.573 391.96C664.506 390.44 665.733 389.28 667.253 388.48C668.773 387.68 670.426 387.28 672.213 387.28C673.519 387.28 674.693 387.533 675.733 388.04C676.799 388.52 677.653 389.173 678.293 390C678.959 390.827 679.359 391.76 679.493 392.8C679.173 393.973 678.413 394.56 677.213 394.56C675.719 394.56 674.853 393.627 674.613 391.76L674.093 389.36C673.853 389.307 673.613 389.267 673.373 389.24C673.133 389.213 672.893 389.2 672.653 389.2C671.693 389.2 670.799 389.48 669.973 390.04C669.173 390.573 668.519 391.413 668.013 392.56C667.506 393.707 667.253 395.16 667.253 396.92C667.253 399.347 667.799 401.2 668.893 402.48C670.013 403.76 671.466 404.4 673.253 404.4C674.319 404.4 675.279 404.16 676.133 403.68C676.986 403.2 677.706 402.547 678.293 401.72L679.493 402.6C678.826 404.227 677.826 405.467 676.493 406.32C675.186 407.147 673.586 407.56 671.693 407.56ZM681.188 407V405.36L683.908 404.84C683.935 403.827 683.948 402.76 683.948 401.64C683.975 400.52 683.988 399.507 683.988 398.6V381.44L681.068 381.04V379.48L688.348 377.68L688.948 378.04L688.788 383.68V396.84L695.428 390.12L692.428 389.52L692.468 387.84H701.908V389.52L698.268 390.04L694.228 393.96L700.388 404.8L702.988 405.36V407H696.228L690.868 397.24L688.788 399.28C688.788 400.187 688.788 401.133 688.788 402.12C688.815 403.08 688.842 404 688.868 404.88L691.548 405.36V407H681.188ZM703.389 398.44V395.36H713.189V398.44H703.389ZM725.951 389.2C725.311 389.2 724.671 389.413 724.031 389.84C723.418 390.24 722.885 390.907 722.431 391.84C722.005 392.773 721.738 394.04 721.631 395.64H727.111C728.071 395.64 728.711 395.44 729.031 395.04C729.351 394.64 729.511 394.08 729.511 393.36C729.511 392.133 729.165 391.133 728.471 390.36C727.778 389.587 726.938 389.2 725.951 389.2ZM725.951 407.56C724.085 407.56 722.445 407.16 721.031 406.36C719.618 405.56 718.511 404.413 717.711 402.92C716.911 401.4 716.511 399.6 716.511 397.52C716.511 395.387 716.965 393.56 717.871 392.04C718.805 390.493 720.005 389.32 721.471 388.52C722.965 387.693 724.551 387.28 726.231 387.28C727.805 387.28 729.178 387.613 730.351 388.28C731.525 388.947 732.431 389.88 733.071 391.08C733.738 392.28 734.071 393.693 734.071 395.32C734.071 396.173 733.991 396.907 733.831 397.52H721.591C721.698 399.813 722.298 401.533 723.391 402.68C724.511 403.827 725.911 404.4 727.591 404.4C728.765 404.4 729.751 404.173 730.551 403.72C731.378 403.24 732.125 402.627 732.791 401.88L733.951 402.92C733.178 404.387 732.111 405.533 730.751 406.36C729.418 407.16 727.818 407.56 725.951 407.56ZM736.977 407V405.36L739.577 404.84C739.604 403.853 739.617 402.787 739.617 401.64C739.617 400.467 739.617 399.453 739.617 398.6V396.48C739.617 395.387 739.604 394.52 739.577 393.88C739.577 393.213 739.551 392.48 739.497 391.68L736.697 391.32V389.8L743.377 387.28L744.017 387.68L744.297 390.76C746.351 388.44 748.617 387.28 751.097 387.28C752.831 387.28 754.164 387.853 755.097 389C756.057 390.147 756.537 391.96 756.537 394.44V398.6C756.537 399.507 756.537 400.533 756.537 401.68C756.537 402.827 756.551 403.893 756.577 404.88L759.017 405.36V407H749.137V405.36L751.697 404.84C751.724 403.853 751.737 402.8 751.737 401.68C751.737 400.533 751.737 399.507 751.737 398.6V394.8C751.737 393.227 751.524 392.147 751.097 391.56C750.671 390.947 749.951 390.64 748.937 390.64C747.524 390.64 746.031 391.293 744.457 392.6V398.6C744.457 399.48 744.457 400.493 744.457 401.64C744.457 402.787 744.471 403.867 744.497 404.88L746.857 405.36V407H736.977ZM766.67 397.52C766.67 399.947 767.124 401.76 768.03 402.96C768.964 404.133 770.137 404.72 771.55 404.72C772.244 404.72 772.87 404.587 773.43 404.32C774.017 404.027 774.564 403.613 775.07 403.08V391.6C773.897 390.587 772.737 390.08 771.59 390.08C770.257 390.08 769.097 390.68 768.11 391.88C767.15 393.08 766.67 394.96 766.67 397.52ZM775.55 407.44L775.23 404.92C774.484 405.773 773.657 406.427 772.75 406.88C771.844 407.333 770.804 407.56 769.63 407.56C768.057 407.56 766.657 407.16 765.43 406.36C764.23 405.56 763.284 404.413 762.59 402.92C761.897 401.427 761.55 399.653 761.55 397.6C761.55 395.493 761.937 393.667 762.71 392.12C763.51 390.573 764.564 389.387 765.87 388.56C767.204 387.707 768.657 387.28 770.23 387.28C771.244 387.28 772.15 387.467 772.95 387.84C773.777 388.213 774.55 388.827 775.27 389.68V381.44L772.15 381.04V379.48L779.47 377.68L780.07 378.04L779.91 383.68V404.92L782.51 405.36V407L775.55 407.44ZM789.273 407.52C788.713 407.52 788.247 407.333 787.873 406.96C787.5 406.56 787.313 406.107 787.313 405.6C787.313 405.067 787.5 404.613 787.873 404.24C788.247 403.84 788.713 403.64 789.273 403.64C789.833 403.64 790.3 403.84 790.673 404.24C791.047 404.613 791.233 405.067 791.233 405.6C791.233 406.107 791.047 406.56 790.673 406.96C790.3 407.333 789.833 407.52 789.273 407.52Z" fill="black"/>
<path d="M215.891 352H539.987V354H215.891V352Z" fill="black"/>
<path d="M98.3554 544.118C90.3852 542.602 78.3428 554.01 72.0049 579.117" stroke="black"/>
<path d="M98.3536 543.833C90.4029 545.449 78.219 534.192 71.5681 509.166" stroke="black"/>
<path d="M45.2193 544.45C53.17 542.835 65.3539 554.091 72.0049 579.117" stroke="black"/>
<path d="M45.2175 544.165C53.1878 545.681 65.2302 534.273 71.568 509.166" stroke="black"/>
</svg>
