<svg width="740" height="424" viewBox="0 0 740 424" fill="none" xmlns="http://www.w3.org/2000/svg">
<path d="M733.922 373.673C725.631 392.369 707.61 405.757 681.997 413.909C656.385 422.062 623.239 424.958 584.819 422.708C507.983 418.208 410.163 393.131 309.582 348.527C209.002 303.924 124.747 248.257 69.8299 194.329C42.3701 167.364 22.2656 140.853 11.1139 116.398C-0.038099 91.9414 -2.21372 69.5969 6.07746 50.9005C14.3686 32.204 32.3902 18.8163 58.003 10.6637C83.6151 2.51144 116.761 -0.384876 155.181 1.86527C232.017 6.36533 329.837 31.4422 430.418 76.0459C530.998 120.65 615.253 176.317 670.17 230.244C697.63 257.209 717.734 283.72 728.886 308.175C740.038 332.632 742.214 354.976 733.922 373.673Z" stroke="black"/>
</svg>
