<svg width="469" height="185" viewBox="0 0 469 185" fill="none" xmlns="http://www.w3.org/2000/svg">
<path d="M467.742 30.6606C470.169 39.7423 466.14 50.2011 456.515 61.3978C446.903 72.5795 431.793 84.3946 412.313 96.1403C373.358 119.628 317.028 142.778 252.556 160.009C188.085 177.239 127.716 185.279 82.2373 184.356C59.4946 183.895 40.5053 181.193 26.5963 176.298C12.6687 171.396 3.9587 164.342 1.53153 155.26C-0.895644 146.179 3.13385 135.72 12.7589 124.523C22.3711 113.341 37.4806 101.526 56.9609 89.7805C95.9155 66.2927 152.246 43.1426 216.718 25.9119C281.189 8.68128 341.558 0.642221 387.037 1.56441C409.779 2.02558 428.769 4.72735 442.678 9.6228C456.605 14.5248 465.315 21.5789 467.742 30.6606Z" stroke="black" stroke-opacity="0.5"/>
</svg>
