<?xml version="1.0" standalone="no"?>
<!DOCTYPE svg PUBLIC "-//W3C//DTD SVG 20010904//EN"
 "http://www.w3.org/TR/2001/REC-SVG-20010904/DTD/svg10.dtd">
<svg version="1.0" xmlns="http://www.w3.org/2000/svg"
 width="512.000000pt" height="512.000000pt" viewBox="0 0 512.000000 512.000000"
 preserveAspectRatio="xMidYMid meet">

<g transform="translate(0.000000,512.000000) scale(0.100000,-0.100000)"
fill="#000000" stroke="none">
<path d="M1601 4956 c-20 -21 -24 -41 -32 -138 -19 -255 -101 -435 -257 -564
-119 -98 -269 -157 -443 -173 -83 -8 -95 -12 -116 -35 -31 -36 -29 -71 5 -105
24 -24 38 -29 109 -35 320 -26 572 -216 659 -496 25 -77 44 -192 44 -258 0
-86 18 -127 65 -142 33 -11 40 -10 64 7 22 17 27 31 33 89 26 236 46 315 108
433 83 154 253 282 445 334 33 9 102 20 153 25 111 11 142 31 142 92 0 59 -30
79 -136 91 -343 38 -580 224 -663 519 -12 41 -26 125 -32 185 -6 61 -13 120
-15 133 -12 61 -91 83 -133 38z m120 -643 c78 -114 178 -206 304 -278 l77 -44
-53 -27 c-142 -70 -276 -199 -351 -335 -24 -43 -46 -79 -50 -79 -3 0 -11 14
-17 31 -38 111 -202 283 -345 363 l-87 49 58 31 c161 87 293 219 370 370 l25
49 18 -41 c11 -23 34 -63 51 -89z"/>
<path d="M3496 3867 c-21 -21 -25 -37 -30 -123 -25 -400 -91 -626 -254 -874
-206 -311 -632 -540 -1054 -566 -113 -7 -147 -19 -163 -57 -15 -37 -9 -70 19
-96 17 -16 44 -22 144 -30 611 -53 1051 -378 1225 -902 51 -153 87 -374 87
-529 0 -88 17 -132 58 -149 25 -10 36 -10 58 1 40 19 54 53 54 136 0 307 98
648 248 869 221 324 607 534 1057 573 125 11 160 25 171 69 4 13 0 37 -9 56
-19 40 -50 51 -171 59 -184 13 -403 74 -580 163 -453 227 -689 634 -722 1248
-6 116 -9 131 -30 152 -31 30 -78 30 -108 0z m78 -744 c80 -256 297 -540 533
-697 107 -71 263 -151 348 -180 82 -27 83 -31 13 -56 -107 -40 -254 -115 -361
-186 -238 -159 -451 -436 -533 -696 -10 -32 -21 -58 -24 -58 -3 0 -14 24 -23
53 -24 76 -110 248 -164 329 -102 152 -241 290 -392 386 -82 54 -262 145 -326
166 -85 28 -84 31 6 65 305 116 549 306 718 558 50 75 135 246 158 320 9 29
20 53 23 53 3 0 14 -26 24 -57z"/>
<path d="M887 2109 c-28 -16 -47 -71 -47 -136 0 -73 -23 -201 -49 -276 -38
-108 -83 -180 -166 -263 -66 -67 -97 -89 -175 -128 -106 -51 -212 -82 -325
-92 -61 -6 -80 -11 -100 -32 -29 -28 -31 -51 -10 -92 18 -34 22 -36 145 -50
308 -36 538 -210 631 -477 28 -80 39 -140 49 -268 7 -101 10 -111 35 -132 35
-31 89 -31 109 -1 8 13 18 59 21 103 9 123 23 203 51 286 87 265 317 444 618
480 50 6 101 13 114 15 61 12 84 93 39 138 -18 18 -39 24 -100 30 -296 27
-524 176 -636 417 -47 101 -81 262 -81 387 0 73 -68 123 -123 91z m104 -666
c83 -121 172 -202 305 -278 l76 -44 -53 -27 c-142 -70 -276 -199 -351 -335
-24 -43 -45 -79 -48 -79 -3 0 -20 29 -38 64 -67 130 -197 259 -340 338 l-74
41 59 31 c157 84 272 197 359 352 l37 65 18 -40 c10 -23 33 -62 50 -88z"/>
</g>
</svg>
