<?xml version="1.0" standalone="no"?>
<!DOCTYPE svg PUBLIC "-//W3C//DTD SVG 20010904//EN"
 "http://www.w3.org/TR/2001/REC-SVG-20010904/DTD/svg10.dtd">
<svg version="1.0" xmlns="http://www.w3.org/2000/svg"
 width="512.000000pt" height="512.000000pt" viewBox="0 0 512.000000 512.000000"
 preserveAspectRatio="xMidYMid meet">

<g transform="translate(0.000000,512.000000) scale(0.100000,-0.100000)"
fill="#000000" stroke="none">
<path d="M645 5108 c-44 -25 -44 -31 -45 -329 0 -339 -5 -323 107 -344 121
-23 198 -91 223 -196 16 -66 6 -125 -33 -190 -41 -68 -101 -106 -188 -119 -48
-8 -70 -17 -86 -36 -22 -24 -23 -32 -23 -228 0 -200 0 -203 23 -225 16 -14 46
-25 87 -32 74 -12 106 -27 149 -70 103 -102 104 -259 3 -360 -48 -47 -121 -79
-182 -79 -15 0 -39 -11 -54 -25 l-26 -24 0 -291 0 -291 26 -24 c15 -14 39 -25
54 -25 61 0 134 -32 182 -79 101 -101 100 -258 -3 -360 -43 -43 -75 -58 -149
-70 -41 -7 -71 -18 -87 -32 l-23 -22 0 -287 c0 -273 1 -289 20 -313 15 -19 34
-28 68 -32 107 -15 173 -55 214 -132 50 -93 45 -192 -13 -273 -42 -58 -94 -88
-180 -104 -111 -22 -109 -17 -109 -260 1 -142 4 -206 13 -217 28 -36 51 -39
332 -39 l277 0 27 28 c20 20 29 41 34 79 25 217 279 309 432 157 44 -45 66
-96 80 -186 4 -23 15 -45 32 -58 24 -19 40 -20 215 -20 218 0 240 6 257 68 6
20 11 47 11 60 0 59 64 148 134 185 58 30 174 30 232 0 70 -37 134 -126 134
-185 0 -13 5 -40 11 -60 17 -62 39 -68 257 -68 175 0 191 1 215 20 17 13 28
35 32 58 14 90 36 141 80 186 153 152 407 60 432 -157 5 -38 14 -59 34 -79
l27 -28 277 0 c281 0 304 3 332 39 9 12 12 93 13 302 0 339 5 323 -107 344
-121 23 -198 91 -223 196 -16 64 -7 122 29 185 44 76 108 115 213 129 34 4 53
13 68 32 19 24 20 40 20 228 0 199 0 202 -23 224 -16 14 -46 25 -87 32 -74 12
-106 27 -149 70 -103 102 -104 259 -3 360 48 47 121 79 182 79 15 0 39 11 54
25 l26 24 0 291 0 291 -26 24 c-15 14 -39 25 -54 25 -61 0 -134 32 -182 79
-101 101 -100 258 3 360 43 43 75 58 149 70 41 7 71 18 87 32 23 22 23 25 23
224 0 188 -1 204 -20 228 -15 19 -34 28 -68 32 -105 14 -169 53 -213 129 -36
63 -45 121 -29 185 25 105 102 173 223 196 112 21 107 5 107 344 -1 209 -4
290 -13 302 -28 36 -51 39 -332 39 l-277 0 -27 -28 c-20 -20 -29 -41 -34 -79
-25 -217 -279 -309 -432 -157 -44 45 -66 96 -80 186 -4 23 -15 45 -32 58 -24
19 -40 20 -215 20 -218 0 -240 -6 -257 -68 -6 -20 -11 -47 -11 -60 0 -102
-129 -212 -250 -212 -121 0 -250 110 -250 212 0 13 -5 40 -11 60 -17 62 -39
68 -257 68 -175 0 -191 -1 -215 -20 -17 -13 -28 -35 -32 -58 -14 -90 -36 -141
-80 -186 -153 -152 -407 -60 -432 157 -5 38 -14 59 -34 79 l-27 28 -279 0
c-190 -1 -284 -4 -298 -12z m481 -185 c9 -35 50 -118 78 -156 37 -51 130 -113
205 -137 129 -41 276 -15 386 68 61 46 120 128 142 199 l17 54 94 -3 95 -3 17
-52 c53 -164 221 -283 400 -283 179 0 347 119 400 283 l17 52 95 3 94 3 17
-54 c67 -213 312 -336 528 -267 75 24 168 86 205 137 28 38 69 121 78 156 l6
27 175 0 175 0 -2 -176 -3 -177 -42 -12 c-97 -29 -200 -120 -247 -219 -78
-162 -46 -356 81 -484 50 -50 157 -112 196 -112 15 0 17 -11 17 -99 l0 -99
-44 -11 c-58 -14 -161 -85 -198 -135 -98 -135 -121 -277 -67 -422 40 -106 142
-206 250 -245 l59 -22 0 -177 0 -177 -59 -22 c-323 -117 -376 -559 -91 -750
35 -23 83 -46 106 -52 l44 -11 0 -99 c0 -88 -2 -99 -17 -99 -39 0 -146 -62
-196 -112 -127 -128 -159 -322 -81 -484 47 -99 150 -190 247 -219 l42 -12 3
-177 2 -176 -175 0 -175 0 -6 27 c-9 35 -50 118 -78 156 -37 51 -130 113 -205
137 -129 41 -276 15 -386 -68 -61 -46 -120 -128 -142 -199 l-17 -54 -94 3 -95
3 -17 52 c-53 164 -221 283 -400 283 -179 0 -347 -119 -400 -283 l-17 -52 -95
-3 -94 -3 -17 54 c-67 213 -312 336 -528 267 -75 -24 -168 -86 -205 -137 -28
-38 -69 -121 -78 -155 l-6 -28 -176 0 -175 0 3 91 3 90 52 18 c188 63 310 272
274 468 -23 123 -86 221 -186 285 -33 22 -79 44 -102 51 l-43 11 0 182 0 182
44 11 c58 14 161 85 198 135 98 135 121 277 67 421 -40 107 -141 206 -249 246
l-60 22 0 177 0 177 59 22 c323 117 376 559 91 750 -35 23 -83 46 -106 52
l-44 11 0 99 c0 88 2 99 18 99 38 0 145 62 195 112 127 128 159 322 81 484
-47 99 -150 190 -247 219 l-42 12 -3 177 -2 176 175 0 175 0 6 -27z"/>
<path d="M1430 4263 c-8 -3 -25 -15 -37 -26 l-23 -20 0 -1699 0 -1699 25 -24
24 -25 1141 0 1141 0 24 25 25 24 0 1699 0 1699 -26 24 -26 24 -1126 2 c-620
1 -1134 -1 -1142 -4z m2150 -1743 l0 -1580 -1020 0 -1020 0 0 1580 0 1580
1020 0 1020 0 0 -1580z"/>
</g>
</svg>
