<?xml version="1.0" standalone="no"?>
<!DOCTYPE svg PUBLIC "-//W3C//DTD SVG 20010904//EN"
 "http://www.w3.org/TR/2001/REC-SVG-20010904/DTD/svg10.dtd">
<svg version="1.0" xmlns="http://www.w3.org/2000/svg"
 width="512.000000pt" height="512.000000pt" viewBox="0 0 512.000000 512.000000"
 preserveAspectRatio="xMidYMid meet">

<g transform="translate(0.000000,512.000000) scale(0.100000,-0.100000)"
fill="#000000" stroke="none">
<path d="M3050 4430 c-308 -38 -590 -139 -830 -297 -199 -132 -337 -262 -485
-458 l-68 -90 -57 -2 c-80 -3 -138 -28 -275 -120 -152 -102 -175 -113 -225
-113 -50 0 -73 11 -225 113 -147 99 -197 119 -292 119 -55 0 -84 -5 -125 -24
-73 -34 -445 -283 -458 -307 -29 -55 11 -121 74 -121 27 0 76 28 246 140 279
185 257 184 498 25 152 -100 205 -119 305 -113 86 6 113 18 289 136 70 47 131
83 134 80 3 -4 -3 -23 -14 -45 -34 -66 -93 -234 -117 -328 l-22 -90 -104 -72
c-118 -81 -169 -100 -227 -86 -21 5 -94 47 -162 93 -176 118 -216 135 -315
134 -57 -1 -93 -7 -125 -21 -65 -29 -435 -277 -454 -304 -24 -35 -20 -67 13
-100 49 -48 66 -42 282 102 108 72 215 137 237 144 66 23 102 10 264 -97 95
-62 171 -104 206 -114 101 -30 210 -7 320 66 l32 22 0 -149 c0 -81 3 -164 6
-183 6 -35 5 -36 -78 -91 -114 -77 -141 -89 -188 -89 -50 0 -67 8 -229 115
-146 97 -191 116 -276 116 -112 1 -130 -8 -392 -183 -137 -91 -197 -137 -204
-155 -13 -35 -2 -79 24 -98 48 -33 75 -22 297 125 280 185 257 184 500 24 142
-93 192 -114 281 -114 75 0 137 21 222 76 37 24 71 44 76 44 5 0 12 -17 16
-37 4 -21 22 -83 41 -138 37 -108 40 -125 23 -125 -6 0 -76 -43 -156 -95 -80
-52 -163 -100 -184 -107 -57 -17 -103 1 -242 94 -173 116 -214 133 -312 133
-59 -1 -92 -7 -126 -22 -65 -29 -434 -278 -453 -305 -39 -55 5 -128 77 -128
12 0 112 60 222 133 110 74 217 139 237 146 60 20 100 5 260 -100 171 -113
228 -135 322 -126 81 8 118 24 255 116 130 87 178 114 190 107 4 -3 28 -40 53
-83 242 -416 675 -739 1148 -857 177 -45 236 -51 470 -51 240 0 309 9 495 61
651 182 1148 691 1316 1347 144 563 12 1172 -352 1627 -295 369 -714 612
-1184 686 -116 18 -378 26 -475 14z m351 -171 c293 -29 560 -126 806 -291 134
-90 330 -283 425 -418 138 -195 247 -454 290 -690 25 -138 30 -407 9 -540 -90
-577 -443 -1054 -962 -1299 -239 -113 -459 -161 -732 -161 -368 0 -712 113
-1009 332 -92 67 -284 257 -338 333 l-35 50 35 -23 c19 -13 64 -38 100 -55 57
-28 75 -32 148 -32 81 -1 85 -2 125 -35 284 -240 612 -361 975 -361 197 0 341
24 517 87 342 122 660 405 825 734 386 769 37 1720 -752 2050 -332 138 -673
157 -1021 55 -95 -27 -269 -105 -352 -157 -139 -88 -331 -263 -414 -380 -19
-27 -38 -48 -43 -48 -7 0 -143 87 -167 106 -5 4 83 118 142 184 354 398 904
613 1428 559z m98 -394 c473 -96 855 -433 1005 -886 53 -159 69 -281 63 -462
-3 -84 -13 -185 -22 -227 -79 -355 -283 -651 -583 -845 -391 -252 -892 -280
-1307 -72 -79 39 -243 146 -264 171 -9 10 10 27 82 75 52 34 109 66 128 71 66
20 101 4 321 -141 227 -151 249 -159 293 -114 29 28 32 70 9 104 -27 38 -427
298 -486 316 -116 34 -193 14 -358 -96 -140 -92 -124 -93 -208 19 -48 65 -141
226 -142 244 0 4 31 4 69 1 107 -9 153 7 306 108 173 113 185 119 240 119 58
0 79 -11 300 -159 139 -94 187 -121 213 -121 61 0 101 66 72 121 -11 20 -364
260 -435 297 -51 25 -94 34 -162 33 -82 -1 -114 -14 -268 -115 -163 -107 -182
-116 -236 -116 -42 0 -78 15 -145 61 -36 24 -42 34 -48 76 -16 106 -25 241
-19 289 l5 51 60 -30 c76 -38 162 -46 240 -23 35 10 111 52 206 114 161 106
195 119 265 98 23 -7 131 -72 240 -144 215 -143 238 -152 282 -107 29 28 32
70 9 103 -19 27 -388 276 -453 305 -34 16 -67 21 -126 21 -99 0 -128 -12 -295
-124 -185 -124 -208 -130 -306 -80 -102 52 -100 49 -80 122 10 34 36 106 58
160 l40 98 63 0 c93 0 142 20 285 114 166 109 180 116 235 116 58 0 79 -11
300 -159 139 -94 187 -121 213 -121 61 0 101 66 72 121 -14 25 -420 296 -474
316 -53 19 -169 19 -223 0 -23 -9 -95 -51 -160 -95 -131 -87 -183 -117 -183
-104 0 5 38 50 85 100 209 222 465 357 772 407 107 18 343 13 452 -10z m-1596
-605 c4 -4 -7 -42 -26 -86 -19 -43 -45 -109 -57 -146 -12 -38 -23 -68 -25 -68
-1 0 -22 9 -46 19 -24 11 -68 23 -96 27 -51 6 -52 8 -47 33 11 47 76 215 105
274 l29 57 78 -51 c42 -29 81 -55 85 -59z m-188 -454 c34 -19 40 -26 38 -51
-2 -17 -4 -103 -5 -193 -3 -140 -5 -161 -18 -155 -8 3 -55 8 -104 11 l-89 4 6
182 c3 99 9 191 12 203 12 39 89 38 160 -1z m27 -598 c50 -33 55 -40 77 -109
31 -99 118 -278 175 -361 25 -37 46 -69 46 -72 0 -3 -62 35 -137 83 -76 48
-156 94 -178 102 -37 14 -42 20 -73 99 -32 83 -82 257 -82 287 0 13 11 15 59
11 47 -3 71 -12 113 -40z"/>
</g>
</svg>
